<svg xmlns="http://www.w3.org/2000/svg" xmlns:xlink="http://www.w3.org/1999/xlink" width="445" height="445" viewBox="0 0 445 445">
  <defs>
    <polygon id="illustration-arbeit-a" points="0 .047 392.019 .047 392.019 245.294 0 245.294"/>
    <polygon id="illustration-arbeit-c" points=".007 .234 131.513 .234 131.513 80.436 .007 80.436"/>
  </defs>
  <g fill="none" fill-rule="evenodd">
    <rect width="445" height="445"/>
    <g transform="translate(35 35)">
      <path d="M187.5,0 C291.053391,0 375,83.9466094 375,187.5 C375,291.053391 291.053391,375 187.5,375 L0,375 L0,187.5 C0,83.9466094 83.9466094,0 187.5,0 Z" transform="rotate(90 187.5 187.5)"/>
      <path fill="#B7CBDC" d="M187.5,0 C291.053391,0 375,83.9466094 375,187.5 C375,291.053391 291.053391,375 187.5,375 L0,375 L0,187.5 C0,83.9466094 83.9466094,0 187.5,0 Z" transform="rotate(90 187.5 187.5)"/>
      <path d="M187.5,0 C291.053391,0 375,83.9466094 375,187.5 C375,291.053391 291.053391,375 187.5,375 L0,375 L0,187.5 C0,83.9466094 83.9466094,0 187.5,0 Z" transform="rotate(90 187.5 187.5)"/>
    </g>
    <g transform="translate(283 93)">
      <path fill="#3E73A2" d="M112.6962,98.8962 C115.8582,98.8962 118.4462,96.3092 118.4462,93.1462 L118.4462,90.5592 C118.4462,87.3962 115.8582,84.8092 112.6962,84.8092 L94.0092,84.8092 C90.8462,84.8092 88.2592,87.3962 88.2592,90.5592 L88.2592,93.1462 C88.2592,96.3092 90.8462,98.8962 94.0092,98.8962 L112.6962,98.8962 M128.5082,79.9222 C131.6712,79.9222 134.2582,77.3342 134.2582,74.1722 L134.2582,72.4472 C134.2582,69.2852 131.6712,66.6972 128.5082,66.6972 L93.4342,66.6972 C90.2712,66.6972 87.6842,69.2852 87.6842,72.4472 L87.6842,74.1722 C87.6842,77.3342 90.2712,79.9222 93.4342,79.9222 L128.5082,79.9222 M143.7452,23.8612 C146.9072,23.8612 149.4952,21.2732 149.4952,18.1112 L149.4952,16.0992 C149.4952,12.9372 146.9072,10.3492 143.7452,10.3492 L92.5712,10.3492 C89.4092,10.3492 86.8222,12.9372 86.8222,16.0992 L86.8222,18.1112 C86.8222,21.2732 89.4092,23.8612 92.5712,23.8612 L143.7452,23.8612 M143.7452,61.8102 C146.9072,61.8102 149.4952,59.2222 149.4952,56.0602 L149.4952,54.0472 C149.4952,50.8852 146.9072,48.2982 143.7452,48.2982 L92.5712,48.2982 C89.4092,48.2982 86.8222,50.8852 86.8222,54.0472 L86.8222,56.0602 C86.8222,59.2222 89.4092,61.8102 92.5712,61.8102 L143.7452,61.8102 M155.8192,43.4102 L92.5712,43.4102 C89.4092,43.4102 86.8222,40.8232 86.8222,37.6612 L86.8222,34.7862 C86.8222,31.6242 89.4092,29.0362 92.5712,29.0362 L155.8192,29.0362 C158.9822,29.0362 161.5692,31.6242 161.5692,34.7862 L161.5692,37.6612 C161.5692,40.8232 158.9822,43.4102 155.8192,43.4102"/>
      <path fill="#0A406E" d="M80.497,119.883 C81.359,119.883 81.934,119.308 81.934,118.446 L81.934,115.571 C81.934,114.708 81.359,114.133 80.497,114.133 C79.635,114.133 79.06,114.708 79.06,115.571 L79.06,118.446 C79.06,119.308 79.635,119.883 80.497,119.883 M80.497,108.096 C81.359,108.096 81.934,107.521 81.934,106.658 L81.934,100.909 C81.934,100.046 81.359,99.471 80.497,99.471 C79.635,99.471 79.06,100.046 79.06,100.909 L79.06,106.658 C79.06,107.521 79.635,108.096 80.497,108.096 M80.497,93.721 C81.359,93.721 81.934,92.859 81.934,92.284 L81.934,86.534 C81.934,85.672 81.359,85.097 80.497,85.097 C79.635,85.097 79.06,85.672 79.06,86.534 L79.06,92.284 C79.06,93.147 79.635,93.721 80.497,93.721 M80.497,79.059 C81.359,79.059 81.934,78.197 81.934,77.622 L81.934,71.872 C81.934,71.009 81.359,70.435 80.497,70.435 C79.635,70.435 79.06,71.009 79.06,71.872 L79.06,77.622 C79.06,78.485 79.635,79.059 80.497,79.059 M80.497,64.397 C81.359,64.397 81.934,63.822 81.934,62.96 L81.934,57.21 C81.934,56.348 81.359,55.773 80.497,55.773 C79.635,55.773 79.06,56.348 79.06,57.21 L79.06,62.96 C79.06,63.822 79.635,64.397 80.497,64.397 M80.497,49.736 C81.359,49.736 81.934,49.16 81.934,48.298 L81.934,42.548 C81.934,41.686 81.359,41.111 80.497,41.111 C79.635,41.111 79.06,41.686 79.06,42.548 L79.06,48.298 C79.06,49.16 79.635,49.736 80.497,49.736 M80.497,35.073 C81.359,35.073 81.934,34.498 81.934,33.636 L81.934,27.886 C81.934,27.024 81.359,26.448 80.497,26.448 C79.635,26.448 79.06,27.024 79.06,27.886 L79.06,33.636 C79.06,34.498 79.635,35.073 80.497,35.073 M80.497,20.411 C81.359,20.411 81.934,19.837 81.934,18.974 L81.934,13.224 C81.934,12.362 81.359,11.787 80.497,11.787 C79.635,11.787 79.06,12.362 79.06,13.224 L79.06,18.974 C79.06,19.836 79.635,20.411 80.497,20.411 M80.497,5.749 C81.359,5.749 81.934,5.175 81.934,4.312 L81.934,1.437 C81.934,0.574 81.359,-7.10542736e-15 80.497,-7.10542736e-15 C79.635,-7.10542736e-15 79.06,0.574 79.06,1.437 L79.06,4.312 C79.06,5.175 79.635,5.749 80.497,5.749 M68.997,99.758 C72.16,99.758 74.747,97.171 74.747,94.009 L74.747,91.422 C74.747,88.259 72.16,85.672 68.997,85.672 L50.31,85.672 C47.148,85.672 44.56,88.259 44.56,91.422 L44.56,94.009 C44.56,97.171 47.148,99.758 50.31,99.758 L68.997,99.758 M68.997,80.784 C72.16,80.784 74.747,78.197 74.46,75.034 L74.46,73.31 C74.46,70.147 71.872,67.56 68.71,67.56 L33.636,67.56 C30.474,67.56 27.887,70.147 27.887,73.31 L27.887,75.034 C27.887,78.197 30.474,80.784 33.636,80.784 L68.997,80.784 M68.997,24.724 C72.16,24.724 74.747,22.136 74.747,18.974 L74.747,16.962 C74.747,13.799 72.16,11.212 68.997,11.212 L17.824,11.212 C14.662,11.212 12.074,13.799 12.074,16.962 L12.074,18.974 C12.074,22.136 14.662,24.724 17.824,24.724 L68.997,24.724 M68.997,62.385 C72.16,62.385 74.747,59.798 74.747,56.635 L74.747,54.623 C74.747,51.46 72.16,48.873 68.997,48.873 L17.824,48.873 C14.662,48.873 12.074,51.46 12.074,54.623 L12.074,56.635 C12.074,59.798 14.662,62.385 17.824,62.385 L68.997,62.385 M68.997,44.273 L5.75,44.273 C2.587,44.273 5.54223334e-13,41.686 5.54223334e-13,38.523 L5.54223334e-13,35.648 C5.54223334e-13,32.486 2.587,29.899 5.75,29.899 L68.997,29.899 C72.16,29.899 74.747,32.486 74.747,35.648 L74.747,38.523 C74.747,41.686 72.16,44.273 68.997,44.273"/>
    </g>
    <g transform="translate(0 11)">
      <g transform="translate(0 117.766)">
        <mask id="illustration-arbeit-b" fill="#fff">
          <use xlink:href="#illustration-arbeit-a"/>
        </mask>
        <path fill="#0A406E" d="M389.4316,200.1579 L137.0146,200.1579 C136.9776,200.1579 136.9496,200.1419 136.9136,200.1399 L65.2606,200.1399 L65.2606,242.4009 L317.6766,242.4009 C317.7496,242.4009 317.8226,242.4109 317.8946,242.4199 L389.4316,242.4199 L389.4316,200.1579 Z M75.0356,57.2579 L83.0846,9.2469 L33.6366,46.9079 C33.6366,47.4829 33.9236,48.0579 33.9236,48.6329 L69.5726,48.6329 L74.1726,48.6329 L74.1726,57.2579 L75.0356,57.2579 Z M54.0486,58.1199 L69.5726,58.1199 L69.5726,52.6579 L54.0486,52.6579 L54.0486,58.1199 Z M34.7866,58.1199 L50.0236,58.1199 L50.0236,52.6579 L34.7866,52.6579 L34.7866,58.1199 Z M83.9476,27.6459 L82.7976,34.2589 L88.8346,38.8579 L87.6846,30.8079 L83.9476,27.6459 Z M84.5226,22.7589 L86.5346,24.4839 L85.9596,19.5959 L85.3846,19.0209 L84.5226,22.7589 Z M78.4846,64.1579 L78.4846,96.3559 L86.5346,96.3559 L86.5346,95.7809 L86.5346,69.3319 C86.5346,68.1819 87.6846,67.0319 88.8346,67.0319 C89.4096,67.0319 89.9846,67.3199 90.2716,67.6069 C92.2846,67.6069 94.2966,67.8949 96.3096,68.4699 L96.3096,64.1579 L78.4846,64.1579 Z M90.8476,53.5199 L89.6976,44.6079 L82.2226,38.5709 L81.0726,45.4709 L90.8476,53.5199 Z M80.2096,49.7829 L79.0596,57.2579 L89.4096,57.2579 L80.2096,49.7829 Z M101.7716,134.5929 L101.7716,122.5179 L75.8976,122.5179 L75.8976,122.8049 L101.7716,134.5929 Z M101.7716,155.0049 L101.7716,141.7799 L75.8976,129.9929 L75.8976,143.2179 L101.7716,155.0049 Z M101.7716,175.4159 L101.7716,162.1909 L75.8976,150.4039 L75.8976,163.6289 L101.7716,175.4159 Z M76.1846,191.5149 L76.1846,197.2649 L88.5476,197.2649 L76.1846,191.5149 Z M101.7716,196.1149 L101.7716,182.8909 L75.8976,171.1039 L75.8976,184.3279 L101.7716,196.1149 Z M88.5476,8.6719 L95.7346,57.5449 L96.5966,57.5449 L112.1216,48.6329 C112.4086,48.3459 112.9836,48.3459 113.5586,48.3459 L189.7436,48.3459 L189.7436,47.1959 L88.5476,8.6719 Z M158.1196,52.0829 L153.8076,59.2699 L235.7426,59.2699 L240.3416,52.0829 L158.1196,52.0829 Z M245.5166,59.2699 L261.3286,59.2699 L256.4416,52.0829 L249.8286,52.0829 L245.5166,59.2699 Z M148.6326,52.0829 L130.8076,52.0829 L126.4956,59.2699 L144.3206,59.2699 L148.6326,52.0829 Z M121.0336,52.0829 L113.2716,52.0829 L102.6346,58.4079 C102.6346,58.6949 102.9216,58.9829 102.9216,59.2699 L116.7216,59.2699 L121.0336,52.0829 Z M392.0196,198.7209 L392.0196,243.8569 C392.0196,244.7199 391.4446,245.2939 390.5816,245.2939 L136.7276,245.2939 C136.6906,245.2939 136.6616,245.2779 136.6266,245.2759 L64.1106,245.2759 C63.2476,245.2759 62.6726,244.7009 62.6726,243.8389 L62.6726,198.7029 C62.6726,197.8409 63.2476,197.2649 64.1106,197.2649 L72.1606,197.2649 L72.1606,122.5179 L69.8606,122.5179 L69.8606,116.4799 L74.7476,116.4799 L74.7476,111.5939 L67.8476,111.5939 L67.8476,96.3559 L73.5976,96.3559 L73.5976,66.1699 L69.5726,66.1699 L34.7866,66.1699 C33.9236,69.9069 30.7616,72.7819 26.7366,72.7819 L8.0496,72.7819 C3.7376,72.7819 -0.0004,69.0449 -0.0004,64.7319 L-0.0004,48.6329 L19.8366,48.6329 C20.4116,44.8949 23.2866,42.0209 27.0246,42.0209 C28.4616,42.0209 29.8986,42.5959 31.0486,43.4579 L81.0726,5.5099 L81.0726,4.6469 C81.0726,2.0589 83.0846,0.0469 85.6726,0.0469 C88.2596,0.0469 90.2716,2.0589 90.2716,4.6469 L90.2716,4.9339 L191.4686,43.4579 C192.6186,42.3079 194.3436,41.4459 196.3556,41.4459 C199.8066,41.4459 202.6806,44.3209 202.9686,47.7699 L203.8306,48.0579 L257.5916,48.0579 C258.7416,48.0579 259.3166,48.9199 259.6046,49.7829 L266.2156,59.2699 L268.2286,59.2699 C270.5286,59.2699 272.2536,60.9949 272.2536,63.2949 C272.2536,65.5949 270.5286,67.3199 268.2286,67.3199 L102.0586,67.3199 L102.0586,70.4819 C112.4086,75.3689 119.5966,86.0069 119.5966,98.3689 L119.5966,99.8059 C119.8836,100.0939 120.1706,100.6689 120.1706,101.2439 C120.1706,102.9689 118.7336,104.1189 117.2966,104.1189 L110.3966,104.1189 L110.3966,111.5939 L104.3596,111.5939 L104.3596,116.4799 L107.8086,116.4799 L107.8086,122.5179 L105.7966,122.5179 L105.7966,197.2649 L317.6766,197.2649 C317.7136,197.2649 317.7426,197.2809 317.7786,197.2829 L390.5816,197.2829 C391.4446,197.2829 392.0196,197.8579 392.0196,198.7209 L392.0196,198.7209 Z M186.2936,240.1009 L157.5446,203.3029 L179.3936,203.3029 L208.1426,240.1009 L186.2936,240.1009 Z" mask="url(#illustration-arbeit-b)"/>
      </g>
      <path fill="#FFDC6C" d="M354.1845,320.7051 L332.3355,320.7051 L361.0845,357.5041 L382.9335,357.5041 L354.1845,320.7051 Z M310.2645,320.7051 L288.4145,320.7051 L317.1635,357.5041 L339.0135,357.5041 L310.2645,320.7051 Z M267.0795,321.0681 L245.2295,321.0681 L273.9785,357.8671 L295.8285,357.8671 L267.0795,321.0681 Z M223.3795,321.0681 L201.5305,321.0681 L230.2805,357.8671 L252.1285,357.8671 L223.3795,321.0681 Z M135.4085,321.0681 L113.5585,321.0681 L142.3085,357.8671 L164.1575,357.8671 L135.4085,321.0681 Z M120.1705,357.8671 L98.3215,357.8671 L69.5725,321.0681 L91.4215,321.0681 L120.1705,357.8671 Z"/>
      <path fill="#FFF" d="M164.5444,113.9981 C164.5444,114.3231 164.5444,114.6471 164.2194,114.9721 L156.1024,169.5231 L176.2334,201.9941 L195.3914,201.0191 C195.3914,201.0191 192.7944,189.9791 190.8454,181.5371 C190.8454,172.1211 189.5464,163.0291 189.5464,153.6121 C189.8714,150.0401 190.8454,143.5461 191.1704,139.6501 C191.4954,139.6501 191.1704,137.3771 191.1704,137.3771 C197.6644,141.5981 205.7824,145.1701 213.2504,146.4691 C223.3164,148.0921 228.8364,144.8451 231.4334,134.7791 C235.6554,118.5441 235.3304,103.6071 232.0834,87.0471 C230.4604,78.6051 221.3684,49.3811 218.1214,48.4071 C215.5234,47.7571 189.8714,78.2801 184.6764,82.1771 C183.0524,83.1501 172.6624,91.2691 170.7134,89.6451 C170.3894,89.3201 169.7394,88.9951 169.4154,88.6711 C167.7914,87.0471 165.8434,86.0731 163.8954,86.0731 C158.6994,86.0731 154.1534,92.2421 154.1534,100.0361 C154.1534,107.8281 158.3754,113.9981 163.8954,113.9981 L164.5444,113.9981 L164.5444,113.9981 Z M277.8674,222.4501 L325.2744,182.8361 C325.2744,182.8361 329.4954,179.5891 338.2624,178.2901 C346.0554,177.3161 378.5264,171.4711 378.5264,171.4711 C378.5264,171.4711 380.4744,178.6151 373.3314,181.8621 C366.1874,185.1091 361.3164,185.7581 361.3164,185.7581 C361.3164,185.7581 360.0174,186.0831 359.3684,188.0311 C358.3944,190.3041 349.6274,211.7341 349.6274,211.7341 C349.6274,211.7341 346.7054,219.5271 339.2364,219.5271 L329.8204,219.5271 L306.4414,239.9841 L277.8674,222.4501 Z"/>
      <path fill="#0A406E" d="M235.9794 112.6993L235.9794 108.8033 197.0154 108.8033C183.3774 107.8283 186.2994 95.8143 186.2994 95.8143L191.8194 75.0333C201.2364 64.9673 216.4974 47.7573 218.4454 48.0823 219.4194 48.4073 220.7184 50.6793 222.0174 53.9273 223.3164 52.3033 223.9654 50.3553 223.9654 48.0823 223.9654 46.4583 223.6404 44.8353 222.6664 43.2113 223.9654 41.5883 224.6154 39.6393 224.6154 37.3663 224.6154 31.8463 220.3944 27.6253 214.8744 27.6253 213.8994 27.6253 212.9254 27.9503 211.9514 28.2753 211.6264 27.6253 211.3024 27.3013 210.9774 26.9763 209.6784 23.4043 206.1064 20.4823 202.2104 20.4823 199.6124 20.4823 197.3394 21.4563 195.7164 23.0793 192.4694 20.4823 188.5724 19.1833 184.3514 19.1833 177.5324 19.1833 171.3634 23.0793 168.1164 28.5993 167.1424 28.2753 165.8434 27.9503 164.5444 27.9503 159.6734 27.9503 155.4524 31.5223 154.8034 36.0683 151.5564 36.0683 148.9584 38.6653 148.9584 41.9123 148.9584 42.5623 148.9584 42.8863 149.2834 43.5363 145.3864 43.8613 142.1394 47.1083 142.1394 51.0043 142.1394 51.6543 142.1394 52.6283 142.4644 53.2773 137.9184 54.2513 134.6714 58.4723 134.6714 63.3443 134.6714 65.9413 135.6454 67.8893 136.9444 69.8383 136.2944 71.4613 135.9704 73.0853 135.9704 75.0333 135.9704 78.2803 137.2694 81.2023 139.2174 83.8003 137.9184 85.4243 137.2694 87.3713 137.2694 89.6453 137.2694 94.5153 141.1654 98.7373 146.0364 99.0613 144.7374 100.3603 144.0874 101.9843 144.0874 103.9323 144.0874 107.8283 147.3344 111.0753 151.2314 111.0753 153.1794 111.0753 155.1274 110.1013 156.4264 108.8033 155.1274 106.5303 154.1534 103.2823 154.1534 100.0353 154.1534 92.2423 158.6994 86.0733 163.8954 86.0733 165.8434 86.0733 167.7914 87.0473 169.4154 88.6713 169.7394 88.9953 170.3894 89.3203 170.7134 89.6453 171.0384 89.6453 171.0384 89.9693 171.3634 89.9693 171.0384 92.8923 169.7394 101.0103 167.4664 116.5953 166.4924 140.6243 201.5614 149.3913 201.5614 149.3913 201.5614 149.3913 225.5884 156.8593 233.7074 140.6243 241.5004 124.3883 235.9794 112.6993 235.9794 112.6993M211.3022 215.6309C211.3022 215.6309 211.3022 211.0849 210.0032 204.5909 209.7422 198.2399 208.1422 192.2449 205.4922 186.8619L199.2882 158.8079C199.2882 155.2349 196.0412 152.3139 192.1442 152.3139L147.6592 143.5459C143.7632 143.5459 140.5162 146.4689 140.5162 150.0399L138.0012 171.5299C127.6562 179.6549 121.0332 192.2789 121.0332 206.5389 121.0332 214.6569 123.3062 221.8009 126.8782 228.2949 128.8262 283.8189 133.3722 398.7659 133.3722 398.7659L229.1612 398.7659 211.3022 215.6309z"/>
      <polygon fill="#3E73A2" points="221.368 319.537 129.669 302.894 128.55 273.967 218.77 290.639"/>
      <polygon fill="#3E73A2" points="225.207 358.22 131.203 343.3 130.107 314.936 222.455 329.999"/>
      <path fill="#9EDED4" d="M330.1445,232.5157 L302.8695,201.3447 L255.7875,241.2837 L204.4835,207.1887 C201.8855,190.9537 187.9235,178.9397 171.0385,178.9397 C152.2055,178.9397 136.9445,194.2007 136.9445,213.0337 C136.9445,231.8667 151.5565,276.3517 170.0645,276.3517 C177.2075,276.3517 183.7025,270.1817 189.2225,261.0897 L240.8505,294.8597 L241.1745,294.5357 C249.2925,299.4057 259.3585,299.0807 267.1515,293.2367 L267.8005,292.5867 C268.1255,292.2617 268.4505,292.2617 268.4505,291.9377 L271.3735,289.0147 L330.1445,232.5157 Z"/>
      <path fill="#FFDC6C" d="M311.6367,250.3751 L283.0627,218.2291 L276.2427,223.7491 L304.8177,257.1931 L311.6367,250.3751 Z M318.1307,244.2051 L290.2057,212.0601 L297.0247,206.2151 L324.9497,237.7111 L318.1307,244.2051 Z"/>
      <polygon fill="#083358" points="144.737 232.304 220.337 308.073 218.053 279.949"/>
      <path fill="#3E73A2" d="M237.6035,64.9674 C237.6035,64.6424 237.6035,64.6424 237.6035,64.9674 L243.4485,40.2894 C243.7725,36.7174 241.1745,33.4704 237.6035,33.1454 L222.3415,30.2234 C214.5495,13.9884 198.3135,2.6234 179.1565,2.6234 C153.1795,2.6234 132.0735,23.4044 131.4245,49.7054 L129.8005,49.3814 C126.2285,49.3814 123.3065,52.3034 123.3065,55.8754 C123.3065,59.4464 126.2285,62.3694 129.8005,62.3694 L132.0735,62.6944 C131.7495,63.3434 131.7495,63.9924 131.7495,64.9674 L131.7495,73.4094 C131.7495,76.9814 134.6715,79.9044 138.2435,79.9044 L189.8715,76.6564 C193.4435,76.6564 196.3655,73.7344 196.3655,70.1624 L245.7205,75.6824 C249.2925,75.6824 252.2145,76.0074 252.2145,72.4354 C252.2145,72.1104 247.3445,67.8894 237.6035,64.9674 L237.6035,64.9674 Z M201.2365,58.7974 C201.2365,58.7974 201.2365,59.1224 201.2365,58.7974 L189.8715,57.4984 L201.2365,58.7974 Z"/>
      <g transform="translate(122 .766)">
        <mask id="illustration-arbeit-d" fill="#fff">
          <use xlink:href="#illustration-arbeit-c"/>
        </mask>
        <path fill="#0B406F" d="M95.7963,49.2643 C95.7963,50.2383 96.4453,50.8883 97.4203,50.8883 C98.3943,50.8883 99.0433,49.9133 99.0433,49.2643 C97.0953,27.1843 78.9113,9.9743 57.4813,9.9743 C41.8953,9.9743 27.6083,18.7423 20.4643,33.3533 C20.1393,34.0033 20.4643,34.9773 21.1133,35.6263 C21.7633,35.9513 22.7373,35.6263 23.3863,34.9773 C29.8803,21.6643 43.1933,13.5463 57.4813,13.5463 C77.2883,13.2223 94.1723,29.1323 95.7963,49.2643 L95.7963,49.2643 Z M131.1893,70.0453 C130.8643,69.7213 126.3183,65.8253 117.2263,62.9023 L122.7473,39.5233 C123.3963,34.9773 120.1493,31.0803 115.6033,30.4313 L101.3163,27.5093 C93.1983,11.5983 76.6383,0.2333 57.4813,0.2333 C31.5043,0.2333 10.0733,21.0143 8.1253,46.9913 C3.5793,46.9913 0.0073,50.5633 0.0073,55.1093 C0.0073,59.6553 3.5793,63.2263 7.8003,63.2263 L8.4503,63.2263 L8.1253,72.3183 C8.1253,76.8643 11.6973,80.4363 16.2433,80.4363 L67.8713,77.1893 C71.7683,77.1893 75.0153,74.5913 75.6643,70.6953 L123.3963,76.2153 L124.3703,76.2153 L125.0193,76.2153 C126.9673,76.2153 128.9163,76.2153 130.2143,74.9163 C131.1893,73.9423 131.5133,72.9683 131.5133,71.3443 L131.5133,70.6953 L131.1893,70.0453 Z M115.6033,34.0033 C118.2013,34.3273 120.1493,36.6003 119.8243,39.1983 L114.3043,61.9283 C111.7073,61.2783 109.1093,60.6293 105.8623,60.3043 C106.5113,57.0573 106.8363,53.8103 106.8363,50.5633 C106.8363,43.7443 105.5373,37.2503 103.2643,31.4053 L115.6033,34.0033 Z M57.4813,3.4803 C83.1323,3.4803 103.9143,24.5863 103.9143,50.5633 C103.9143,53.4853 103.5883,56.7323 102.9393,59.6553 L78.2623,56.4083 L75.0153,42.1203 C74.0413,38.5493 70.7943,36.2763 67.8713,35.9513 L50.6623,33.3533 C48.0643,33.0293 43.8433,34.3273 42.2193,37.2503 L34.4263,50.5633 L11.3723,47.3163 C12.6713,22.9633 32.8033,3.4803 57.4813,3.4803 L57.4813,3.4803 Z M74.6903,56.0833 L37.6733,51.2123 L44.4923,39.1983 C45.4663,37.2503 48.0643,36.6003 49.6883,36.6003 L66.8973,39.1983 C68.5213,39.5233 70.7943,41.1463 71.1183,43.0953 L74.6903,56.0833 Z M67.8713,73.9423 L16.2433,77.1893 C13.6453,77.1893 11.3723,74.9163 11.3723,72.3193 L11.6973,63.5513 L72.7423,70.3703 C72.0923,72.6433 70.1443,73.9423 67.8713,73.9423 L67.8713,73.9423 Z M128.2663,72.6433 C127.9423,72.9683 125.9943,72.9683 124.6953,72.9683 L124.0463,72.9683 L8.1253,59.9793 C5.5273,59.9793 3.2543,57.7063 3.2543,55.1093 C3.2543,52.5113 5.5273,50.2383 7.8003,50.2383 L104.2383,63.2263 C117.8763,64.8503 126.3183,70.3703 128.5913,71.9943 C128.5913,72.3193 128.5913,72.3193 128.2663,72.6433 L128.2663,72.6433 Z" mask="url(#illustration-arbeit-d)"/>
      </g>
    </g>
  </g>
</svg>
