<?xml version="1.0" encoding="utf-8"?>
<svg version="1.1" id="info_1" xmlns="http://www.w3.org/2000/svg" xmlns:xlink="http://www.w3.org/1999/xlink" x="0px" y="0px"
	 viewBox="0 0 120 120" style="enable-background:new 0 0 120 120;" xml:space="preserve">
<path id="info-BG-Fill" style="fill-rule:evenodd;clip-rule:evenodd;fill:#0A406E;" d="M0,60C0,26.9,26.9,0,60,0s60,26.9,60,60v60H60
	C26.9,120,0,93.1,0,60z"/>
<path id="info-i" style="fill-rule:evenodd;clip-rule:evenodd;fill:#CFDCE8;" d="M64.3,30.7c3.3,0,6,2.3,6,5.8c0,3.5-2.7,5.7-6,5.7
	c-3.3,0-5.9-2.2-5.9-5.7C58.4,33,61,30.7,64.3,30.7 M49.7,53.4c0-2.3,6.5-4.4,12.7-4.4c3.2,0,4.6,1,4.6,3.8c0,2.6-4.5,27.1-4.5,29.3
	c0,1,0.6,1.6,1.5,1.6c1.4,0,3.3-0.6,5-1.8c0.4,0.6,0.6,1,0.6,2.2c0,2-5.4,5.3-11.2,5.3c-3.9,0-6.2-1.7-6.2-5.1
	c0-2.1,4.3-26.2,4.3-28.1c0-1.2-0.4-1.8-1.5-1.8c-1.4,0-3.3,0.3-4.8,1C49.8,54.7,49.7,53.9,49.7,53.4"/>
</svg>
