<svg xmlns="http://www.w3.org/2000/svg" xmlns:xlink="http://www.w3.org/1999/xlink" width="445" height="445" viewBox="0 0 445 445">
  <defs>
    <polygon id="illustration-europa-und-die-welt-a" points="0 .539 95.642 .539 95.642 88.042 0 88.042"/>
    <polygon id="illustration-europa-und-die-welt-c" points=".315 .508 75.893 .508 75.893 179 .315 179"/>
    <polygon id="illustration-europa-und-die-welt-e" points=".099 .268 121.609 .268 121.609 150.442 .099 150.442"/>
  </defs>
  <g fill="none" fill-rule="evenodd">
    <rect width="445" height="445"/>
    <g transform="translate(35 35)">
      <path d="M187.5,0 C291.053391,0 375,83.9466094 375,187.5 C375,291.053391 291.053391,375 187.5,375 L0,375 L0,187.5 C0,83.9466094 83.9466094,0 187.5,0 Z" transform="rotate(90 187.5 187.5)"/>
      <path fill="#B7CBDC" d="M187.5,0 C291.053391,0 375,83.9466094 375,187.5 C375,291.053391 291.053391,375 187.5,375 L0,375 L0,187.5 C0,83.9466094 83.9466094,0 187.5,0 Z" transform="rotate(90 187.5 187.5)"/>
      <path d="M187.5,0 C291.053391,0 375,83.9466094 375,187.5 C375,291.053391 291.053391,375 187.5,375 L0,375 L0,187.5 C0,83.9466094 83.9466094,0 187.5,0 Z" transform="rotate(90 187.5 187.5)"/>
    </g>
    <g transform="translate(292 45)">
      <path fill="#083358" d="M18.157,57.3465 C18.157,57.3465 24.605,64.4725 37.161,52.9345 C29.695,48.5235 18.157,57.3465 18.157,57.3465 M29.016,47.1655 C23.927,40.3795 10.013,43.4335 10.013,43.4335 C10.013,43.4335 13.067,52.5955 29.016,47.1655 M18.157,38.6825 C14.763,31.5555 1.869,32.5745 1.869,32.5745 C1.869,32.5745 3.226,41.0575 18.157,38.6825 M10.692,28.5025 C10.692,21.7155 0.173,17.3045 0.173,17.3045 C0.173,17.3045 -2.203,24.4295 10.692,28.5025 M15.442,4.7475 C10.352,7.1235 11.71,16.9645 11.71,16.9645 C11.71,16.9645 18.157,15.6075 15.442,4.7475 M21.89,12.2135 C15.782,14.9285 16.121,25.7875 16.121,25.7875 C16.121,25.7875 23.248,25.1085 21.89,12.2135 M27.659,19.3395 C20.872,22.3935 20.872,35.2885 20.872,35.2885 C20.872,35.2885 29.355,34.2705 27.659,19.3395 M38.518,25.4485 C29.695,28.5025 30.713,42.7545 30.713,42.7545 C30.713,42.7545 41.572,42.0755 38.518,25.4485 M48.019,32.2345 C39.536,34.9495 40.215,49.5415 40.215,49.5415 C40.215,49.5415 51.074,48.8625 48.019,32.2345 M51.753,69.5625 C51.753,69.5625 50.395,75.3315 48.698,72.6175 C46.662,69.9025 51.753,63.4545 42.251,55.3105 C32.749,47.5055 19.514,40.3795 14.425,29.1805 C10.352,20.3575 11.71,18.6605 11.71,18.6605 C11.71,18.6605 15.442,31.5555 21.551,36.3065 C27.319,41.0575 44.966,53.6135 47.002,55.9895 C49.038,58.7035 52.77,63.1155 51.753,69.5625"/>
      <path fill="#3E73A2" d="M78.2215,51.2381 C78.2215,51.2381 91.1165,38.6821 94.8495,34.9491 C98.5815,31.5561 109.4415,15.6071 110.1195,5.7661 C110.7985,-4.4139 118.9425,0.3371 117.9245,8.8201 C127.4265,7.4631 121.6575,22.7331 121.6575,22.7331 C121.6575,22.7331 127.4265,20.3581 125.0505,28.8421 C122.6755,37.3251 140.6605,5.4261 142.3575,2.0331 C144.0545,-1.0209 152.1985,2.0331 147.1085,15.9461 C159.6635,20.3581 147.7865,34.2711 147.7865,34.2711 C147.7865,34.2711 151.5195,45.1301 141.3395,52.2561 C147.4475,64.8121 133.8735,70.5811 133.8735,70.5811 C133.8735,70.5811 134.8915,75.6711 125.7295,80.0821 C125.3905,95.0131 95.1885,85.1731 94.8495,84.4941 C94.8495,84.4941 101.6355,112.6591 128.7835,122.5001 C129.8015,130.3051 119.6205,128.2691 119.6205,128.2691 C119.6205,128.2691 119.2825,133.0201 112.1565,129.9661 C106.7265,133.0201 99.6005,124.5361 99.6005,124.5361 C99.6005,124.5361 93.4925,133.6991 83.3115,105.8721 C60.9145,98.4071 60.9145,82.7971 60.9145,82.7971 C60.9145,82.7971 59.5575,58.0251 56.8425,58.0251 C54.1275,58.0251 50.0555,56.6681 47.0015,58.7041 C43.9475,60.7401 49.0375,52.9351 49.0375,52.9351 C49.0375,52.9351 48.6985,40.7181 61.5935,41.0581 C73.8095,44.1121 78.2215,51.2381 78.2215,51.2381"/>
    </g>
    <g transform="translate(0 138)">
      <path fill="#0B406F" d="M262.6236,44.9832 C262.6236,66.8982 248.2656,85.0342 230.8856,85.0342 C213.5046,85.0342 199.1466,67.2752 199.1466,44.9832 C199.1466,22.6912 213.5046,4.9322 230.8856,4.9322 C248.6436,5.3102 262.6236,23.0682 262.6236,44.9832"/>
      <path fill="#FFF" d="M244.109,100.4305 L244.109,85.8285 C249.674,81.2985 254.062,73.9025 256.458,64.9055 C256.618,64.9665 256.783,65.0085 256.956,65.0085 C258.845,65.3865 260.734,61.9855 261.112,57.8295 C261.49,53.6735 260.356,49.8955 258.467,49.8955 C258.463,49.8945 258.459,49.8945 258.455,49.8935 C258.458,49.6415 258.467,49.3925 258.467,49.1395 C258.467,47.1115 258.369,45.1215 258.187,43.1735 C255.067,43.7775 248.535,43.4725 235.042,43.4725 C221.667,43.4725 208.917,39.7365 206.675,31.4185 C205.083,36.5405 204.168,42.2205 204.077,48.1775 C203.821,48.0675 203.562,48.0065 203.303,48.0065 C201.414,48.0065 199.902,51.7845 200.658,55.9405 C201.036,60.0965 202.925,63.1195 204.815,63.1195 C205.084,63.1195 205.336,63.0345 205.573,62.8905 C207.63,71.9435 211.664,79.5445 216.905,84.4985 L216.905,99.7245 C200.115,101.8675 187.812,108.6165 187.812,116.3945 C187.812,124.1725 200.115,130.9215 216.905,133.0645 L216.905,135.2855 L244.109,135.2855 L244.109,132.3585 C258.536,129.6685 268.669,123.4545 268.669,116.3945 C268.669,109.3335 258.536,103.1195 244.109,100.4305"/>
      <path fill="#0A3454" d="M239.0113,112.3328 C248.6493,110.4048 259.4703,107.4358 264.0253,105.5548 C258.5223,102.7498 251.3733,100.6388 244.3033,99.6458 L244.3033,91.8348 L244.3033,85.6748 C240.4393,88.8818 235.9993,90.7018 231.2633,90.7018 C225.9173,90.7018 220.9543,88.3768 216.7663,84.3638 L216.9073,92.2128 L239.0113,112.3328 Z"/>
      <path fill="#3E73A2" d="M179.1451,271.4608 L281.8721,271.4608 L278.4931,174.2028 L304.9411,162.4898 C304.9411,162.4898 302.6741,154.9338 298.1401,139.4418 C293.6061,123.9508 282.2711,116.0168 282.2711,116.0168 L264.8411,105.1998 C259.1731,107.8448 237.6861,113.3718 227.1071,114.1278 C216.1491,114.8828 195.3691,107.3258 195.3691,107.3258 C195.3691,107.3258 198.0131,105.4378 182.5221,112.6158 C167.0311,119.7948 164.3861,129.9968 164.3861,129.9968 L154.9401,162.8678 L182.9001,175.3368 L179.1451,271.4608 Z"/>
      <g transform="translate(0 .461)">
        <mask id="illustration-europa-und-die-welt-b" fill="#fff">
          <use xlink:href="#illustration-europa-und-die-welt-a"/>
        </mask>
        <path fill="#0B406F" d="M95.6197,68.7039 C94.8637,54.7239 86.5517,49.4339 86.5517,49.4339 L85.0397,46.7889 L66.7837,57.2599 C71.1727,48.2729 71.2037,37.3469 65.7707,27.8979 C61.7137,20.8419 55.4327,16.0119 48.3517,13.7489 C51.1827,11.3559 52.0277,7.2409 50.2797,4.0939 C48.3907,0.6929 43.8557,-0.4401 40.0777,1.4489 C39.3047,1.9649 38.6547,2.6009 38.1247,3.3109 C35.9457,0.8369 32.0987,0.1719 29.1207,1.8269 C27.5357,2.7069 26.4507,4.1659 25.9267,5.8129 C22.9567,5.4219 19.8337,5.9359 17.0297,7.4949 C12.3557,10.3499 9.8237,15.1699 9.9227,20.1119 C9.1037,20.2929 8.3087,20.6129 7.5837,21.0969 C4.5437,22.7859 3.0227,26.5869 4.3517,30.0749 C4.2967,30.1089 4.2387,30.1279 4.1827,30.1639 C2.2937,31.2979 1.5387,33.9429 2.6717,36.2099 C2.8027,36.4279 2.9587,36.6279 3.1267,36.8139 C0.3747,38.7379 -0.2953,41.9749 1.1607,44.5219 C1.5017,45.0679 1.9047,45.5139 2.3317,45.9119 C-0.2243,48.2029 -0.7763,52.2519 1.1607,55.4799 C2.1297,57.0949 3.5147,58.2229 5.0767,58.8409 C5.2487,60.1379 5.6967,61.4329 6.4507,62.6589 C7.6387,64.8649 9.5147,66.3779 11.6627,67.1429 C11.4517,68.6849 11.7057,70.3049 12.4957,71.7259 C14.2637,74.9089 18.3487,76.1049 21.6517,74.6969 C21.4347,75.9649 21.6307,77.3229 22.3197,78.5279 C23.8307,81.1729 27.2307,81.9279 29.8757,80.4169 C32.1247,79.1319 32.9917,76.4839 32.2767,74.0939 C35.4457,74.7729 38.7257,74.9569 42.0027,74.6199 C42.3547,75.5069 42.7187,76.4259 43.0997,77.3939 C51.4127,93.6409 77.8617,86.4619 77.8617,86.4619 C77.8617,86.4619 96.3757,82.3059 95.6197,68.7039" mask="url(#illustration-europa-und-die-welt-b)"/>
      </g>
      <path fill="#3E73A2" d="M47.2564,57.452 C47.2564,57.452 48.7684,66.898 59.3474,61.986 L83.5304,48.116 C80.6794,43.168 77.3094,38.552 73.3274,34.026 C69.1714,29.114 52.1684,13.245 49.5234,14.001 C48.1274,14.28 44.8734,30.658 42.5074,41.015 C42.6374,40.901 42.7224,40.827 42.7224,40.827 L47.2564,57.452 Z M42.7224,114.505 L40.0774,78.233 L40.0774,77.477 L39.6994,77.855 C36.2994,79.744 31.0094,77.477 27.9864,72.187 C24.9644,66.898 25.3424,61.608 28.7424,59.341 C30.2544,58.585 31.7654,58.585 33.2774,58.963 L34.4104,58.963 C34.6794,59.017 34.9884,58.866 35.3204,58.572 C35.9054,59.958 38.2594,65.591 43.1004,77.855 C48.1704,87.765 59.9814,88.956 68.4294,88.38 C71.1294,96.743 76.2944,113.557 77.4834,115.639 C85.7964,118.661 42.7224,114.505 42.7224,114.505 L42.7224,114.505 Z"/>
      <polygon fill="#0A406E" points="46.123 187.05 75.594 208.587 71.816 223.7"/>
      <g transform="translate(19 92.461)">
        <mask id="illustration-europa-und-die-welt-d" fill="#fff">
          <use xlink:href="#illustration-europa-und-die-welt-c"/>
        </mask>
        <path fill="#9EDED4" d="M5.9644,80.9871 L6.7194,84.7651 L9.3584,179.0001 L61.6014,179.0001 C59.8574,176.0961 57.6574,173.6731 54.9744,170.3181 C45.3494,157.8861 49.8724,141.9101 50.0704,141.2351 C50.2214,140.6741 66.3624,80.6261 70.8514,65.2911 C72.1934,60.7041 73.9884,57.3091 75.8934,54.7861 L75.4854,54.5381 L74.7304,48.1151 C74.7304,48.1151 72.8414,33.7581 72.8414,33.3801 C72.0854,27.7121 67.1734,22.7991 67.1734,22.7991 L18.8104,0.5081 L16.5434,14.8651 C-6.8826,34.8901 1.0524,60.2061 4.0754,72.2971 C4.8304,76.0751 5.5864,79.4751 5.9644,80.9871" mask="url(#illustration-europa-und-die-welt-d)"/>
      </g>
      <path fill="#0B406F" d="M186.0099,96.3426 C193.2449,88.3456 197.6349,77.9366 197.6349,66.5196 C197.6349,41.2046 176.0989,20.8016 149.6509,20.8016 C123.2019,20.8016 101.6649,41.2046 101.6649,66.5196 C101.6649,73.2126 103.1829,79.5556 105.8859,85.2756 C105.0249,89.2286 105.4309,92.4516 107.3329,94.4806 C108.7119,95.8596 110.7659,96.4486 113.2969,96.3496 C113.5069,96.5806 113.7139,96.8156 113.9279,97.0426 C112.6099,99.8036 111.8669,102.9086 111.8669,106.1936 C111.8669,117.9056 121.3129,126.9736 132.6479,126.9736 C132.7599,126.9736 132.8659,126.9586 132.9779,126.9566 C132.7679,128.5726 132.6479,130.2156 132.6479,131.8856 C132.6479,153.0446 150.0279,170.4246 171.1869,170.4246 C192.3459,170.4246 209.7259,153.0446 209.7259,131.8856 C209.7259,115.9696 199.8899,102.1936 186.0099,96.3426"/>
      <path fill="#FFF" d="M181.0289,151.6317 C181.0289,142.5707 172.5699,138.8347 159.4739,137.1027 L159.4739,122.2917 C167.6199,115.3667 173.0759,102.0147 173.0759,86.5457 C173.0759,86.3527 173.0689,86.1627 173.0669,85.9707 C168.1649,82.2367 162.0879,68.2547 159.5479,59.2527 C156.2829,65.1467 151.3429,71.6287 145.1159,77.8547 C136.8129,85.9507 127.9419,91.8727 120.6909,94.6327 C122.1259,105.8387 126.4939,115.3357 132.5369,121.1657 L132.5369,135.8087 C116.9469,136.3927 103.8949,140.0417 103.8949,149.9527 L107.3329,154.1777 C107.3329,166.6467 148.5169,203.6747 169.2979,203.2967 C189.7009,203.2967 181.0289,164.1007 181.0289,151.6317"/>
      <path fill="#0A3454" d="M172.2994,139.5877 C170.0574,139.0267 164.8254,137.7407 159.8064,136.5097 L159.9664,121.8577 C156.0624,125.3487 151.5124,127.3517 146.6274,127.3517 C141.2734,127.3517 136.3224,124.9477 132.1844,120.8127 L132.5334,128.4207 L159.7244,143.9767 L159.7254,143.9047 L174.7504,152.4577 C174.7504,152.4577 172.6954,139.6877 172.2994,139.5877"/>
      <path fill="#3E73A2" d="M80.6012,271.4608 L190.6542,271.4608 L191.3872,217.1948 C193.6692,213.9108 204.1912,197.4508 196.4272,183.3988 C191.8582,175.1308 188.3042,166.2728 184.8472,157.4948 C181.7472,149.6258 181.5412,141.9078 172.7332,140.2758 C174.0022,148.6488 175.2722,157.0228 176.5422,165.3968 C176.9012,167.7638 177.2542,170.2278 176.5512,172.5168 C174.8732,177.9748 166.6052,178.4748 161.9702,177.8098 C159.6012,177.5478 157.4242,177.4078 155.4022,177.2778 C146.0562,176.6808 140.9072,176.3528 134.8612,164.5488 C127.0422,149.6528 121.3562,137.5508 121.3012,137.4288 L120.5502,135.8308 L116.7872,136.9058 L120.1792,267.9068 L104.3102,247.1258 L111.3672,138.4548 L105.7892,140.0488 C104.0662,140.2808 94.3842,142.2628 89.8512,157.7518 C85.3622,173.0868 69.2212,233.1348 69.0702,233.6958 C68.8722,234.3708 64.3492,250.3478 73.9742,262.7788 C76.6582,266.1338 78.8572,268.5578 80.6012,271.4608"/>
      <polygon fill="#FFDC6C" points="116.778 136.576 111.488 136.576 104.31 247.126 120.179 267.907"/>
      <path fill="#FFDC6C" d="M80.5572,271.4608 C78.7762,268.7488 76.4292,265.8078 74.1332,262.9388 C64.5362,250.5418 69.0062,234.6238 69.2272,233.8648 C62.7172,238.7728 45.3162,253.8258 49.8672,271.4608 L80.5572,271.4608 Z"/>
      <path fill="#FFF" d="M125.4737 131.449C122.4517 126.915 114.8947 125.403 106.2037 131.071 100.9147 134.471 100.1587 139.762 100.1587 143.162 100.1587 145.051 100.9147 146.94 101.6697 148.829L105.8267 157.897C107.7157 161.298 110.3607 163.943 114.1387 165.076 116.0277 165.832 118.6727 165.832 121.3177 164.698 128.8747 161.676 128.4967 148.074 128.4967 148.074 128.4967 148.074 128.1187 135.983 125.4737 131.449M278.8707 66.8978C268.6687 87.3008 270.9357 108.8378 283.7817 115.2608 296.6287 121.6848 315.5197 110.7268 325.7227 90.3238 335.9237 69.9208 333.6567 48.3838 320.8097 41.9608 307.9637 35.5378 289.0717 46.4948 278.8707 66.8978"/>
      <path fill="#9EDED4" d="M254.3111,251.282 L233.7651,271.461 L324.1111,271.461 C323.0331,264.993 322.2981,260.511 321.5661,253.549 C321.1881,249.77 320.8101,240.325 320.8101,236.169 C332.5231,226.345 331.7671,215.387 330.6341,210.097 C330.6341,210.097 324.9661,184.405 327.6111,176.47 C333.6571,157.956 324.2101,151.911 324.2101,151.911 C324.2101,151.911 324.9661,147.755 319.2981,144.354 C318.5431,143.976 317.7881,143.598 317.0321,143.22 L306.0751,136.798 C306.0751,136.798 296.6281,130.752 295.4951,126.973 L278.1151,129.619 L280.3811,145.866 L262.2461,170.803 C261.8681,171.18 261.8681,171.18 261.8681,171.558 C247.5091,191.206 253.9331,199.896 256.5781,205.941 L254.3111,251.282 Z"/>
      <g transform="translate(273 37.461)">
        <mask id="illustration-europa-und-die-welt-f" fill="#fff">
          <use xlink:href="#illustration-europa-und-die-welt-e"/>
        </mask>
        <path fill="#0B406F" d="M106.3746,44.928 C101.2396,41.226 95.4636,39.076 89.5826,38.374 C89.7066,29.995 84.2886,20.084 74.6366,13.19 C65.5026,6.405 53.1266,0.704 44.2266,0.688 C42.6336,0.414 30.7246,-1.362 22.4946,5.255 C10.8646,14.607 31.9406,46.817 31.9406,46.817 L32.0536,46.4 C34.6826,45.324 38.0226,45.71 40.6316,47.573 C44.4096,50.595 45.5436,56.263 42.5206,60.042 C40.8746,62.51 38.2336,63.776 35.4646,63.712 C29.8986,60.695 22.5466,62.377 18.7166,67.598 C15.5076,71.974 15.4656,77.921 18.3906,82.32 C8.8726,83.209 1.1966,90.531 0.2026,100.47 C-0.5984,108.207 3.3226,115.551 9.5476,119.608 C9.5526,119.627 9.5576,119.645 9.5616,119.665 C9.3536,128.413 13.0276,137.068 20.1636,143.134 C22.9466,146.434 26.2376,148.653 30.0886,148.823 C42.2746,153.016 56.0516,148.961 64.0576,137.876 C71.1556,128.047 71.5436,115.654 66.0806,105.828 C82.1286,115.592 103.5396,111.759 114.6876,95.936 C126.3996,79.689 122.9996,56.641 106.3746,44.928" mask="url(#illustration-europa-und-die-welt-f)"/>
      </g>
      <path fill="#FFDC6C" d="M307.4254,35.6507 C307.4254,35.6507 327.5494,32.7157 338.1294,43.2957 C337.3734,44.0507 310.3084,83.2727 310.3084,83.2727 L304.7934,83.8997 L307.4254,35.6507 Z"/>
      <path fill="#083358" d="M184.8468,157.4949 C188.3048,166.2719 191.8588,175.1309 196.4278,183.3989 C204.1908,197.4509 193.6698,213.9109 191.3878,217.1949 L190.6538,271.4609 L210.7708,271.4609 L201.7918,172.6919 C201.7918,172.6919 199.0568,154.1409 187.3438,147.3399 C182.1758,144.4059 179.5028,143.1849 178.1808,142.8069 C181.8478,146.0789 182.5798,151.7409 184.8468,157.4949"/>
      <polygon fill="#0A3454" points="300.783 271.461 311.238 244.219 278.171 271.461"/>
    </g>
  </g>
</svg>
