<svg xmlns="http://www.w3.org/2000/svg" xmlns:xlink="http://www.w3.org/1999/xlink" width="445" height="445" viewBox="0 0 445 445">
  <defs>
    <polygon id="illustration-ministerium-a" points=".856 .652 91.249 .652 91.249 57 .856 57"/>
    <polygon id="illustration-ministerium-c" points=".001 .411 120.312 .411 120.312 122.999 .001 122.999"/>
    <polygon id="illustration-ministerium-e" points="0 407 364.02 407 364.02 .26 0 .26"/>
  </defs>
  <g fill="none" fill-rule="evenodd">
    <rect width="445" height="445"/>
    <g transform="translate(35 35)">
      <path d="M187.5,0 C291.053391,0 375,83.9466094 375,187.5 C375,291.053391 291.053391,375 187.5,375 L0,375 L0,187.5 C0,83.9466094 83.9466094,0 187.5,0 Z" transform="rotate(90 187.5 187.5)"/>
      <path fill="#B7CBDC" d="M187.5,0 C291.053391,0 375,83.9466094 375,187.5 C375,291.053391 291.053391,375 187.5,375 L0,375 L0,187.5 C0,83.9466094 83.9466094,0 187.5,0 Z" transform="rotate(90 187.5 187.5)"/>
      <path d="M187.5,0 C291.053391,0 375,83.9466094 375,187.5 C375,291.053391 291.053391,375 187.5,375 L0,375 L0,187.5 C0,83.9466094 83.9466094,0 187.5,0 Z" transform="rotate(90 187.5 187.5)"/>
    </g>
    <g transform="translate(324 45)">
      <g transform="translate(11 66.589)">
        <mask id="illustration-ministerium-b" fill="#fff">
          <use xlink:href="#illustration-ministerium-a"/>
        </mask>
        <path fill="#0A406E" d="M90.9603,43.8354 C90.3993,42.3144 80.3553,15.1784 77.7883,9.9204 C75.2503,4.6694 72.4583,0.6524 61.7453,0.6524 L59.7343,0.6524 C49.4633,0.6524 46.5633,4.2044 43.9993,9.2664 C41.3663,7.1104 37.7683,6.1724 32.3463,6.1724 L30.3363,6.1724 C19.6523,6.1724 16.8483,10.1884 14.2943,15.4364 C11.7063,20.7164 1.5593,48.1984 1.1483,49.3164 C0.7683,50.2124 0.7583,51.2004 1.1203,52.0984 C1.4813,52.9884 2.1643,53.6834 3.0493,54.0574 C4.8773,54.8224 6.9513,53.9884 7.7483,52.2104 L18.7113,30.5424 L18.8343,30.4754 L14.7243,55.7094 C14.6723,56.0314 14.7633,56.3604 14.9753,56.6074 C15.1853,56.8564 15.4953,57.0004 15.8213,57.0004 L26.8793,57.0004 L38.8553,57.0004 L54.8673,57.0004 L64.5253,57.0004 L72.9963,57.0004 C73.6073,57.0004 74.1043,56.5074 74.1083,55.8974 L74.3223,26.8144 L84.3583,46.6514 C85.1603,48.4834 87.2353,49.3204 89.1073,48.5444 C90.9053,47.7494 91.7323,45.6424 90.9603,43.8354" mask="url(#illustration-ministerium-b)"/>
      </g>
      <g transform="translate(0 .589)">
        <mask id="illustration-ministerium-d" fill="#fff">
          <use xlink:href="#illustration-ministerium-c"/>
        </mask>
        <path fill="#3E73A2" d="M47.1136,18.2695 L47.1166,1.5225 C47.1166,0.9075 46.6196,0.4105 46.0056,0.4105 L26.3066,0.4105 C25.7726,0.4105 25.3126,0.7915 25.2156,1.3165 L22.2016,17.3195 C16.3426,23.8305 5.4346,35.9305 4.7376,36.6295 C1.8486,39.9245 1.7816,43.8395 1.8006,44.9065 L0.0006,82.5785 C0.0026,82.7305 0.0346,83.1045 0.0346,83.2925 C0.0346,86.8755 2.9506,89.7905 6.5356,89.7905 C12.4536,89.7905 12.9846,82.5645 12.9846,82.5645 L16.8056,61.8425 C15.3886,61.5325 14.0856,60.8345 13.0356,59.7845 C10.1756,56.9245 10.0846,52.3675 12.6936,49.3585 L28.9866,28.1705 C29.4786,27.5325 30.3936,27.4145 31.0286,27.9035 C31.6656,28.3935 31.7846,29.3085 31.2956,29.9455 L15.0036,51.1335 C14.9886,51.1525 14.9656,51.1585 14.9496,51.1765 C13.2576,53.0405 13.2956,55.9255 15.0936,57.7255 C16.0566,58.6875 17.3326,59.1395 18.5946,59.1025 C18.5996,59.1025 18.6026,59.1005 18.6066,59.1005 C18.6916,59.0975 18.7726,59.0755 18.8566,59.0685 C18.8956,59.0475 18.9346,59.0275 18.9746,59.0055 C19.4316,58.7475 19.8676,58.4485 20.2496,58.0665 C20.2706,58.0465 20.3206,57.9875 20.3666,57.9325 C20.4266,57.8915 20.4816,57.8475 20.5226,57.8045 C26.6546,51.2885 35.8696,41.5255 37.0366,40.3635 C46.9546,31.1275 47.1666,18.9575 47.1136,18.2695 L47.1136,18.2695 Z M118.5106,47.5835 C118.5296,46.5175 118.4626,42.6015 115.5736,39.3065 C114.8766,38.6075 103.9676,26.5065 98.1096,19.9965 L95.0956,3.9945 C94.9986,3.4685 94.5386,3.0875 94.0046,3.0875 L74.3056,3.0875 C73.6916,3.0875 73.1946,3.5845 73.1946,4.1995 L73.1976,20.9465 C73.1446,21.6345 73.3576,33.8045 83.2746,43.0405 C84.4416,44.2035 93.6566,53.9655 99.7886,60.4805 C99.8296,60.5245 99.8846,60.5675 99.9446,60.6095 C99.9906,60.6645 100.0406,60.7235 100.0616,60.7445 C100.4436,61.1255 100.8806,61.4245 101.3376,61.6825 C101.3766,61.7045 101.4156,61.7245 101.4546,61.7455 C101.5396,61.7525 101.6196,61.7745 101.7046,61.7765 C101.7096,61.7775 101.7126,61.7795 101.7166,61.7795 C102.9796,61.8165 104.2546,61.3645 105.2176,60.4025 C107.0156,58.6025 107.0536,55.7175 105.3616,53.8535 C105.3456,53.8355 105.3226,53.8295 105.3076,53.8105 L89.0156,32.6225 C88.5266,31.9845 88.6456,31.0705 89.2836,30.5805 C89.9176,30.0915 90.8336,30.2085 91.3246,30.8475 L107.6176,52.0355 C110.2266,55.0435 110.1346,59.6025 107.2756,62.4605 C106.2256,63.5115 104.9226,64.2095 103.5056,64.5195 L107.3276,85.2415 C107.3276,85.2415 107.8576,92.4675 113.7756,92.4675 C117.3606,92.4675 120.2766,89.5525 120.2766,85.9695 C120.2766,85.7825 120.3086,85.4075 120.3116,85.2555 L118.5106,47.5835 Z M71.0296,40.5865 C66.4596,40.5865 62.7536,45.4905 62.7536,51.5395 C62.7536,57.5885 66.4596,62.4925 71.0296,62.4925 C75.6006,62.4925 79.3066,57.5885 79.3066,51.5395 C79.3066,45.4905 75.6006,40.5865 71.0296,40.5865 L71.0296,40.5865 Z M50.3916,58.1545 C50.3916,64.2035 46.6856,69.1075 42.1146,69.1075 C37.5436,69.1075 33.8386,64.2035 33.8386,58.1545 C33.8386,52.1055 37.5436,47.2015 42.1146,47.2015 C46.6856,47.2015 50.3916,52.1055 50.3916,58.1545 L50.3916,58.1545 Z M58.7346,97.5725 C62.1146,97.5725 64.8546,93.9465 64.8546,89.4735 C64.8546,85.0005 62.1146,81.3755 58.7346,81.3755 C55.3546,81.3755 52.6156,85.0005 52.6156,89.4735 C52.6156,93.9465 55.3546,97.5725 58.7346,97.5725 L58.7346,97.5725 Z M78.5216,100.2405 L73.2396,104.3915 C69.9456,106.9795 67.5246,110.5475 66.4856,114.6055 C65.8736,116.9965 65.5236,119.8475 65.8676,122.9995 L49.8536,122.9995 C49.8536,122.9995 49.8026,110.4735 46.0486,107.2705 C42.2936,104.0685 36.9176,99.7335 36.9176,99.7335 C36.9176,99.7335 34.8746,95.4745 38.6126,95.4252452 C42.3516,95.3775 48.8416,102.1285 56.7026,101.3495 C64.5636,100.5695 73.8956,96.8695 73.8956,96.8695 C73.8956,96.8695 78.2036,94.5065 79.6036,96.3125 C81.0056,98.1175 78.5216,100.2405 78.5216,100.2405 L78.5216,100.2405 Z" mask="url(#illustration-ministerium-d)"/>
      </g>
    </g>
    <g transform="translate(0 2)">
      <polygon fill="#E7EEF3" points="55.586 33.087 55.586 406.469 259.386 406.469 259.386 33.087 154.62 1"/>
      <g transform="translate(0 .74)">
        <path fill="#CFDCE8" d="M247.1884,350.2232 L247.1884,350.2232 C247.6994,350.2232 248.1174,349.8052 248.1174,349.2932 L248.1174,164.8282 C248.1174,164.3172 247.6994,163.8992 247.1884,163.8992 C246.6764,163.8992 246.2584,164.3172 246.2584,164.8282 L246.2584,349.2932 C246.2584,349.8052 246.6764,350.2232 247.1884,350.2232 M202.0164,350.2232 L202.0164,350.2232 C202.5274,350.2232 202.9454,349.8052 202.9454,349.2932 L202.9454,164.8282 C202.9454,164.3172 202.5274,163.8992 202.0164,163.8992 C201.5044,163.8992 201.0864,164.3172 201.0864,164.8282 L201.0864,349.2932 C201.0864,349.8052 201.5044,350.2232 202.0164,350.2232 M156.8444,350.2232 L156.8444,350.2232 C157.3554,350.2232 157.7734,349.8052 157.7734,349.2932 L157.7734,164.8282 C157.7734,164.3172 157.3554,163.8992 156.8444,163.8992 C156.3334,163.8992 155.9154,164.3172 155.9154,164.8282 L155.9154,349.2932 C155.9154,349.8052 156.3334,350.2232 156.8444,350.2232 M111.6724,350.2232 L111.6724,350.2232 C112.1834,350.2232 112.6024,349.8052 112.6024,349.2932 L112.6024,164.8282 C112.6024,164.3172 112.1834,163.8992 111.6724,163.8992 C111.1614,163.8992 110.7434,164.3172 110.7434,164.8282 L110.7434,349.2932 C110.7434,349.8052 111.1614,350.2232 111.6724,350.2232 M235.8954,350.2232 L235.8954,350.2232 C236.4064,350.2232 236.8244,349.8052 236.8244,349.2932 L236.8244,164.8282 C236.8244,164.3172 236.4064,163.8992 235.8954,163.8992 C235.3834,163.8992 234.9654,164.3172 234.9654,164.8282 L234.9654,349.2932 C234.9654,349.8052 235.3834,350.2232 235.8954,350.2232 M224.6024,350.2232 L224.6024,350.2232 C225.1134,350.2232 225.5314,349.8052 225.5314,349.2932 L225.5314,164.8282 C225.5314,164.3172 225.1134,163.8992 224.6024,163.8992 C224.0904,163.8992 223.6724,164.3172 223.6724,164.8282 L223.6724,349.2932 C223.6724,349.8052 224.0904,350.2232 224.6024,350.2232 M213.3094,350.2232 L213.3094,350.2232 C213.8204,350.2232 214.2384,349.8052 214.2384,349.2932 L214.2384,164.8282 C214.2384,164.3172 213.8204,163.8992 213.3094,163.8992 C212.7974,163.8992 212.3794,164.3172 212.3794,164.8282 L212.3794,349.2932 C212.3794,349.8052 212.7974,350.2232 213.3094,350.2232 M190.7234,350.2232 L190.7234,350.2232 C191.2344,350.2232 191.6524,349.8052 191.6524,349.2932 L191.6524,164.8282 C191.6524,164.3172 191.2344,163.8992 190.7234,163.8992 C190.2114,163.8992 189.7934,164.3172 189.7934,164.8282 L189.7934,349.2932 C189.7934,349.8052 190.2114,350.2232 190.7234,350.2232 M179.4304,350.2232 L179.4304,350.2232 C179.9414,350.2232 180.3594,349.8052 180.3594,349.2932 L180.3594,164.8282 C180.3594,164.3172 179.9414,163.8992 179.4304,163.8992 C178.9184,163.8992 178.5004,164.3172 178.5004,164.8282 L178.5004,349.2932 C178.5004,349.8052 178.9184,350.2232 179.4304,350.2232 M168.1374,350.2232 L168.1374,350.2232 C168.6484,350.2232 169.0664,349.8052 169.0664,349.2932 L169.0664,164.8282 C169.0664,164.3172 168.6484,163.8992 168.1374,163.8992 C167.6254,163.8992 167.2084,164.3172 167.2084,164.8282 L167.2084,349.2932 C167.2084,349.8052 167.6254,350.2232 168.1374,350.2232 M145.5514,350.2232 L145.5514,350.2232 C146.0624,350.2232 146.4804,349.8052 146.4804,349.2932 L146.4804,164.8282 C146.4804,164.3172 146.0624,163.8992 145.5514,163.8992 C145.0404,163.8992 144.6224,164.3172 144.6224,164.8282 L144.6224,349.2932 C144.6224,349.8052 145.0404,350.2232 145.5514,350.2232 M134.2584,350.2232 L134.2584,350.2232 C134.7694,350.2232 135.1884,349.8052 135.1884,349.2932 L135.1884,164.8282 C135.1884,164.3172 134.7694,163.8992 134.2584,163.8992 C133.7474,163.8992 133.3294,164.3172 133.3294,164.8282 L133.3294,349.2932 C133.3294,349.8052 133.7474,350.2232 134.2584,350.2232 M122.9654,350.2232 L122.9654,350.2232 C123.4764,350.2232 123.8954,349.8052 123.8954,349.2932 L123.8954,164.8282 C123.8954,164.3172 123.4764,163.8992 122.9654,163.8992 C122.4544,163.8992 122.0364,164.3172 122.0364,164.8282 L122.0364,349.2932 C122.0364,349.8052 122.4544,350.2232 122.9654,350.2232 M100.3794,350.2232 L100.3794,350.2232 C100.8904,350.2232 101.3094,349.8052 101.3094,349.2932 L101.3094,164.8282 C101.3094,164.3172 100.8904,163.8992 100.3794,163.8992 C99.8684,163.8992 99.4504,164.3172 99.4504,164.8282 L99.4504,349.2932 C99.4504,349.8052 99.8684,350.2232 100.3794,350.2232 M89.0864,350.2232 L89.0864,350.2232 C89.5974,350.2232 90.0164,349.8052 90.0164,349.2932 L90.0164,164.8282 C90.0164,164.3172 89.5974,163.8992 89.0864,163.8992 C88.5754,163.8992 88.1574,164.3172 88.1574,164.8282 L88.1574,349.2932 C88.1574,349.8052 88.5754,350.2232 89.0864,350.2232 M77.7934,350.2232 L77.7934,350.2232 C78.3044,350.2232 78.7234,349.8052 78.7234,349.2932 L78.7234,164.8282 C78.7234,164.3172 78.3044,163.8992 77.7934,163.8992 C77.2824,163.8992 76.8644,164.3172 76.8644,164.8282 L76.8644,349.2932 C76.8644,349.8052 77.2824,350.2232 77.7934,350.2232 M65.5714,349.2932 L65.5714,164.8282 C65.5714,164.3172 65.9894,163.8992 66.5004,163.8992 C67.0114,163.8992 67.4304,164.3172 67.4304,164.8282 L67.4304,349.2932 C67.4304,349.8052 67.0114,350.2232 66.5004,350.2232 C65.9894,350.2232 65.5714,349.8052 65.5714,349.2932"/>
        <mask id="illustration-ministerium-f" fill="#fff">
          <use xlink:href="#illustration-ministerium-e"/>
        </mask>
        <path fill="#3E73A2" d="M160.759,341.419 L198.365,341.419 L198.365,303.813 L160.759,303.813 L160.759,341.419 Z M70.733,341.419 L108.339,341.419 L108.339,303.813 L70.733,303.813 L70.733,341.419 Z M205.773,297.141 L243.379,297.141 L243.379,259.535 L205.773,259.535 L205.773,297.141 Z M115.746,297.141 L153.352,297.141 L153.352,259.535 L115.746,259.535 L115.746,297.141 Z M160.759,252.863 L198.365,252.863 L198.365,215.257 L160.759,215.257 L160.759,252.863 Z M70.733,252.863 L108.339,252.863 L108.339,215.257 L70.733,215.257 L70.733,252.863 Z M205.773,208.585 L243.379,208.585 L243.379,170.979 L205.773,170.979 L205.773,208.585 Z M115.746,208.585 L153.352,208.585 L153.352,170.979 L115.746,170.979 L115.746,208.585 Z" mask="url(#illustration-ministerium-f)"/>
        <path fill="#FFDC6C" d="M205.773,341.419 L243.379,341.419 L243.379,303.813 L205.773,303.813 L205.773,341.419 Z M115.746,341.419 L153.352,341.419 L153.352,303.813 L115.746,303.813 L115.746,341.419 Z M160.759,297.141 L198.365,297.141 L198.365,259.535 L160.759,259.535 L160.759,297.141 Z M70.733,297.141 L108.339,297.141 L108.339,259.535 L70.733,259.535 L70.733,297.141 Z M205.773,252.863 L243.379,252.863 L243.379,215.257 L205.773,215.257 L205.773,252.863 Z M115.746,252.863 L153.352,252.863 L153.352,215.257 L115.746,215.257 L115.746,252.863 Z M160.759,208.585 L198.365,208.585 L198.365,170.979 L160.759,170.979 L160.759,208.585 Z M70.733,208.585 L108.339,208.585 L108.339,170.979 L70.733,170.979 L70.733,208.585 Z" mask="url(#illustration-ministerium-f)"/>
        <path fill="#CFDCE8" d="M211.229,93.033 L235.999,93.033 L235.999,44.409 L211.229,44.409 L211.229,93.033 Z M211.229,154.076 L235.999,154.076 L235.999,105.451 L211.229,105.451 L211.229,154.076 Z M144.093,93.033 L168.862,93.033 L168.862,44.409 L144.093,44.409 L144.093,93.033 Z M144.093,154.076 L168.862,154.076 L168.862,105.451 L144.093,105.451 L144.093,154.076 Z M76.956,93.033 L101.725,93.033 L101.725,44.409 L76.956,44.409 L76.956,93.033 Z M76.956,154.075 L101.725,154.075 L101.725,105.45 L76.956,105.45 L76.956,154.075 Z" mask="url(#illustration-ministerium-f)"/>
        <path fill="#FFF" d="M333.2812,317.4224 L333.0262,315.0484 C330.2252,314.0034 327.1532,313.2054 323.8742,312.7344 L323.9802,305.9574 C329.1362,300.9964 332.6332,292.0374 332.6332,281.9244 C332.6332,279.5004 332.4312,277.1434 332.0542,274.8914 L327.4422,274.8914 L317.3852,263.8404 L318.6822,274.8914 L297.5042,274.8914 C297.1392,277.1434 296.9462,279.5004 296.9462,281.9244 C296.9462,292.5254 300.7882,301.8574 306.3542,306.6464 C306.3772,306.6644 306.3992,306.6814 306.4222,306.6994 C306.5052,309.7914 306.5952,313.1524 306.5952,313.0684 C306.5952,311.7824 300.5962,314.2234 300.2852,315.3774 C297.2072,326.7674 303.9962,326.1174 302.8552,326.4474 C304.9492,329.2814 308.2352,331.1524 311.8702,331.1524 L322.2522,331.1524 C328.4152,331.1524 333.6062,325.7944 333.6062,319.4314 C333.6062,318.7614 333.6062,318.0924 333.2812,317.4224" mask="url(#illustration-ministerium-f)"/>
        <path fill="#B7CBDC" d="M333.6064,319.4312 C333.6064,318.7612 333.6064,318.0922 333.2814,317.4222 L333.0264,315.0482 C333.1524,315.0952 332.9264,314.9902 333.0514,315.0382 L333.0314,314.9112 C331.1384,313.9472 323.8334,312.4532 323.8334,312.4532 L323.9874,309.9912 L324.0134,307.0202 C321.4914,309.1902 318.6144,310.4282 315.5794,310.4282 C312.2804,310.4282 309.1694,308.9622 306.4954,306.4292 L306.4954,311.0982 C315.9384,314.2512 325.5154,326.0092 329.0884,328.7052 C331.8114,326.5422 333.6064,323.1652 333.6064,319.4312" mask="url(#illustration-ministerium-f)"/>
        <path fill="#0A406E" d="M322.2519,331.1529 L311.8699,331.1529 C308.2349,331.1529 304.9489,329.2819 302.8559,326.4479 C301.3989,324.4759 300.5159,322.0429 300.5159,319.4309 L301.2039,315.0949 L301.2979,314.8299 L303.2189,314.6149 C304.8439,314.0559 304.8169,313.4559 306.5959,313.0689 L306.4949,306.4289 C300.9289,301.6399 296.9459,292.5249 296.9459,281.9239 C296.9459,279.5009 297.1399,277.1429 297.5039,274.8909 L318.6829,274.8909 L317.3849,263.8409 L327.4419,274.8909 L332.0549,274.8909 C332.4319,277.1429 332.6329,279.5009 332.6329,281.9239 C332.6329,292.0379 329.1369,300.9969 323.9809,305.9579 L323.8739,310.7239 L323.8739,312.7339 C327.1529,313.2059 330.2259,314.0039 333.0259,315.0489 L333.2809,317.4229 C333.6059,318.0919 333.6059,318.7609 333.6059,319.4309 C333.6059,325.7949 328.4149,331.1529 322.2519,331.1529 M285.2469,321.7919 C285.2229,321.6919 285.2049,321.5899 285.1819,321.4909 L285.2819,321.7669 L285.2679,321.7759 C285.2609,321.7809 285.2539,321.7869 285.2469,321.7919 M339.4449,295.6549 C341.0669,294.3149 342.0409,292.3049 342.0409,289.6269 C342.0409,287.6169 341.3929,285.6079 340.0949,284.2679 C341.7169,280.5849 343.0149,276.5659 343.0149,272.5479 C343.0149,257.4769 330.6869,245.4219 315.7629,245.4219 C300.5159,245.4219 288.5119,257.4769 288.5119,272.5479 C288.5119,276.5659 289.4849,280.2499 290.7829,283.5979 C289.4849,284.9379 288.5119,286.9479 288.5119,288.9569 C288.5119,289.6269 288.5119,289.9619 288.8359,290.6319 C287.5389,291.9699 286.5649,293.9799 286.5649,295.9889 C286.5649,297.3289 286.8899,298.6689 287.5389,299.6739 C285.2679,304.0269 284.2949,308.7159 284.2949,314.0729 C284.2949,316.1219 284.4949,318.1249 284.8689,320.0669 L284.6989,320.1739 L284.6989,320.1759 C284.5639,320.2609 284.4259,320.3449 284.2949,320.4359 C279.4279,323.7849 276.8329,329.1429 275.5349,333.1619 C274.5619,335.8409 273.2639,341.8689 272.2909,346.2219 C269.6949,356.2689 269.6949,356.2689 270.9929,356.9389 L273.7179,358.4479 L273.9349,356.6859 L274.1349,355.0519 L273.9129,354.9289 C274.0439,354.1169 274.2719,352.9649 274.5569,351.6249 L274.5619,351.5809 L274.5649,351.5819 C275.6909,346.2939 277.7469,337.9649 278.7789,334.5019 C280.3289,329.7029 282.7729,325.8419 285.8159,323.7529 C285.9589,323.6549 286.0959,323.5399 286.2409,323.4499 C287.2609,322.7929 288.3829,322.1879 289.5639,321.6329 L296.9469,318.7609 L296.9469,319.4309 C296.9469,327.8029 303.4359,334.5019 311.5459,334.5019 L321.9269,334.5019 C330.0369,334.5019 336.5259,327.8029 336.5259,319.4309 C337.1749,319.7659 337.8229,319.7659 338.4729,320.1009 C340.4749,320.7369 342.3999,321.3789 344.2219,322.1939 C344.2309,322.1609 344.2399,322.1289 344.2489,322.0949 C344.4229,321.4339 344.5759,320.7639 344.7069,320.0869 C344.8069,319.5719 344.8929,319.0529 344.9669,318.5309 C345.1729,317.0739 345.2849,315.5859 345.2849,314.0729 C344.9609,307.0409 343.0149,300.6769 339.4449,295.6549" mask="url(#illustration-ministerium-f)"/>
        <polygon fill="#FFDC6C" points="335.228 353.926 324.848 361.626 328.738 374.356 318.358 366.316 307.978 374.356 312.199 361.626 301.808 353.926 314.467 354.256 315.598 350.556 317.269 345.106 318.358 341.535 319.377 344.865 321.068 350.396 322.248 354.256" mask="url(#illustration-ministerium-f)"/>
        <path fill="#0A3454" d="M324.8476,361.6265 L335.2286,353.9265 L322.2476,354.2565 L321.0686,350.3965 L319.3776,344.8655 L318.3586,341.5355 L317.2686,345.1055 L315.5976,350.5565 L314.4676,354.2565 L301.8086,353.9265 L312.1986,361.6265 L307.9786,374.3555 L318.3586,366.3155 L328.7386,374.3555 L324.8476,361.6265 Z M360.2076,338.1865 C365.3986,361.2965 364.0976,361.9665 363.1276,362.6365 C362.6376,362.8065 361.6086,363.3365 359.1676,364.6365 L359.0286,363.0165 L356.5876,364.3155 C354.2686,365.5565 351.0476,367.2855 346.5286,369.6765 L345.7176,370.1055 L346.1276,395.8155 L346.0186,395.5865 L344.6986,406.9955 L288.2976,406.9955 L288.0686,383.9265 L292.0776,375.3555 L287.5376,355.9365 L274.5686,351.5865 C275.6886,346.2965 277.7476,337.9665 278.7786,334.5065 C280.2386,329.9765 282.4976,326.3065 285.3086,324.1555 C285.2976,324.1465 285.2786,324.1465 285.2786,324.1465 L285.2786,323.3155 L288.0876,321.6365 C288.0876,321.6365 288.9276,321.5865 289.7786,321.5255 C291.5186,320.7165 293.0686,319.9665 294.9576,319.3765 C295.2876,319.0465 296.2976,319.0965 296.9486,318.7665 L296.9486,319.4365 C296.9486,327.8065 303.4386,334.5065 311.5476,334.5065 L321.9276,334.5065 C330.0376,334.5065 336.5286,327.8065 336.5286,319.4365 C337.1776,319.7665 337.8276,319.7665 338.4676,320.1055 C340.4786,320.7355 342.3986,321.3765 344.2176,322.1955 C344.2786,322.2165 344.3376,322.2455 344.3986,322.2665 C344.3476,322.2165 344.2976,322.1555 344.2476,322.0965 C344.4176,321.4365 344.5776,320.7665 344.7076,320.0865 C344.8086,319.5755 344.8876,319.0565 344.9676,318.5355 C347.6676,319.6365 350.2286,321.0565 352.4176,323.1155 C357.2876,327.4665 359.2386,333.8365 360.2076,338.1865 L360.2076,338.1865 Z" mask="url(#illustration-ministerium-f)"/>
        <path fill="#0B406F" d="M346.916 406.9996L349.928 406.9996 349.178 399.0516 348.746 371.8986C351.937 370.2056 354.445 368.8656 356.43 367.8046L359.03 397.8276 358.626 406.9996 361.63 406.9996 362.032 397.8616 362.036 397.7636 359.025 363.0116 356.588 364.3156C354.266 365.5606 351.05 367.2826 346.529 369.6796L345.717 370.1096 346.179 399.1566 346.916 406.9996zM192.1581 226.4674C180.2341 226.4674 170.3851 238.6504 170.3851 253.9444 170.3851 269.2374 180.2341 281.4194 192.1581 281.4194 204.0811 281.4194 213.9311 268.9774 213.9311 253.9444 213.9311 238.9094 204.3411 226.7274 192.1581 226.4674" mask="url(#illustration-ministerium-f)"/>
        <path fill="#FFF" d="M218.079,302.9332 C218.079,298.0902 211.127,293.8272 201.23,291.9822 L201.23,281.9642 C205.048,278.8572 208.058,273.7832 209.701,267.6112 C209.811,267.6532 209.924,267.6812 210.043,267.6812 C211.339,267.9412 212.636,265.6082 212.894,262.7562 C213.153,259.9052 212.376,257.3132 211.08,257.3132 C211.077,257.3122 211.074,257.3132 211.071,257.3122 C211.073,257.1392 211.08,256.9682 211.08,256.7942 C211.08,255.4082 211.013,254.0462 210.89,252.7142 C208.796,253.1122 204.461,252.9072 195.602,252.9072 C185.83,252.9072 176.559,249.7962 176.559,242.7972 C176.559,242.4162 176.59,242.0302 176.632,241.6412 C174.882,245.8782 173.85,250.8492 173.769,256.1412 C173.593,256.0652 173.415,256.0172 173.236,256.0172 C171.94,256.0172 170.903,258.6092 171.421,261.4602 C171.681,264.3122 172.976,266.3852 174.272,266.3852 C174.457,266.3852 174.63,266.3282 174.793,266.2282 C176.204,272.4392 178.972,277.6532 182.567,281.0522 L182.567,291.4972 C171.049,292.9672 162.608,297.5972 162.608,302.9332 C162.608,308.2702 171.049,312.9002 182.567,314.3702 L182.567,315.8942 L201.23,315.8942 L201.23,313.8852 C211.127,312.0402 218.079,307.7772 218.079,302.9332" mask="url(#illustration-ministerium-f)"/>
        <path fill="#B7CBDC" d="M188.3408,291.5982 C185.5608,292.9862 190.8698,296.6942 192.1468,301.1382 C199.4388,300.3322 210.2088,298.2232 214.0628,296.6232 C210.7738,294.5442 206.1598,292.8792 201.3628,291.9202 L201.3628,286.0852 L201.3628,281.8592 C198.7128,284.0592 195.6668,285.3072 192.4168,285.3072 C188.7498,285.3072 185.3448,283.7122 182.4718,280.9592 L182.5698,286.3442 L188.3408,291.5982 Z" mask="url(#illustration-ministerium-f)"/>
        <path fill="#3E73A2" d="M156.7529,406.9996 L227.0569,406.9996 L224.8179,342.5926 L242.9629,334.5576 C242.9629,334.5576 241.4069,329.3726 238.2969,318.7456 C235.1869,308.1176 227.4099,302.6746 227.4099,302.6746 L214.4499,296.4536 C210.5619,298.2686 196.8239,300.8596 189.5659,301.3786 C182.0489,301.8966 167.7929,296.7126 167.7929,296.7126 C167.7929,296.7126 169.6069,295.4166 158.9799,300.3416 C148.3519,305.2666 146.5379,312.2656 146.5379,312.2656 L140.0569,334.8156 L159.2389,343.3696 L156.7529,406.9996 Z" mask="url(#illustration-ministerium-f)"/>
        <path fill="#083358" d="M297.7724,267.9566 C297.7724,247.5726 280.6384,231.3256 259.6644,231.3256 C257.3464,231.3256 255.0804,231.5346 252.8744,231.9156 C250.5434,224.6716 243.8134,219.5096 235.7364,219.5096 C225.6924,219.5096 217.7164,227.4846 217.7164,237.5286 C217.7164,243.5716 220.6854,248.9566 225.2434,252.1856 C222.8824,256.9506 221.5564,262.2926 221.5564,267.9566 C221.5564,288.3396 238.6904,304.5866 259.6644,304.5866 C271.1994,304.5866 281.5634,299.5766 288.5644,291.7326 C290.4274,291.7126 291.9624,291.1936 293.0454,290.1116 C294.6284,288.6276 295.0134,286.1116 294.3764,282.9816 C296.5494,278.3856 297.7724,273.2986 297.7724,267.9566" mask="url(#illustration-ministerium-f)"/>
        <path fill="#0A406E" d="M251.6884,317.0992 L251.6884,312.2322 C251.6884,312.2322 258.3894,316.4032 262.0274,316.4032 C266.0234,316.4032 269.7674,314.6572 272.9584,311.6302 L272.9584,316.9942 L273.1044,323.1482 C274.9554,324.0432 276.9244,325.0462 277.9744,325.7332 L272.5204,331.2172 L252.1264,317.4322 L251.6884,317.0992 Z" mask="url(#illustration-ministerium-f)"/>
        <path fill="#3E73A2" d="M240.1249,337.3082 C240.1249,346.0502 250.1489,353.1382 262.5159,353.1382 C274.8819,353.1382 284.9059,346.0502 284.9059,337.3082 C284.9059,331.2322 280.0619,325.9582 272.9579,323.3052 L272.9579,311.6302 C277.8099,307.0282 281.3749,299.4582 282.5669,290.5142 C276.7719,288.3832 269.6609,283.5652 262.9139,276.8182 C257.8919,271.7962 254.0519,266.4792 251.3929,261.7522 C249.4009,268.7222 244.6839,279.6752 240.7739,282.9522 C240.7679,283.2702 240.7579,283.5872 240.7579,283.9082 C240.7579,296.1062 245.2289,306.6732 251.6879,312.2322 L251.6879,323.4522 C244.7949,326.1502 240.1249,331.3422 240.1249,337.3082" mask="url(#illustration-ministerium-f)"/>
        <polygon fill="#3E73A2" points="309.413 407 308.614 380.181 292.572 380.181 292.572 407" mask="url(#illustration-ministerium-f)"/>
        <polygon fill="#3E73A2" points="232.267 407 232.267 380.164 214.978 380.164 214.118 407" mask="url(#illustration-ministerium-f)"/>
        <path fill="#9EDED4" d="M231.7255,391.8922 L232.3865,406.9992 L292.6985,406.9992 L293.3405,392.3232 L293.3995,393.4302 L293.4135,393.0852 C293.4135,392.2002 314.2285,389.7982 314.2285,389.7982 C313.6955,380.3712 312.6755,363.4542 311.6565,352.4432 C311.4345,350.0522 310.8705,347.8852 310.0785,345.9202 C305.5875,336.4582 295.1325,332.5272 294.8915,332.5272 L278.5835,325.1212 L263.8725,339.9132 C263.2825,340.5032 262.3965,340.5032 261.8055,339.9132 L246.7905,324.8342 L230.2475,331.3332 C229.9535,331.3332 214.2965,337.2422 213.1155,352.0122 C212.2105,362.6342 211.3075,379.1272 210.7995,388.6752 C210.7995,388.6752 231.7255,391.0062 231.7255,391.8922" mask="url(#illustration-ministerium-f)"/>
        <path fill="#0B406F" d="M161.372,289.1773 C166.336,283.6913 169.348,276.5503 169.348,268.7183 C169.348,251.3513 154.573,237.3543 136.428,237.3543 C118.284,237.3543 103.509,251.3513 103.509,268.7183 C103.509,276.7853 106.701,284.1233 111.934,289.6713 C111.031,291.5643 110.508,293.6843 110.508,295.9353 C110.508,303.9703 116.988,310.1913 124.764,310.1913 C124.841,310.1913 124.914,310.1813 124.99,310.1803 C124.847,311.2883 124.764,312.4153 124.764,313.5613 C124.764,328.0763 136.687,340.0003 151.203,340.0003 C165.719,340.0003 177.643,328.0763 177.643,313.5613 C177.643,302.6423 170.894,293.1913 161.372,289.1773" mask="url(#illustration-ministerium-f)"/>
        <path fill="#FFF" d="M158.2016,328.8541 C158.2016,322.7481 152.0156,317.3461 143.1676,314.9201 L143.1676,306.9801 C148.7566,302.2291 152.4986,293.0691 152.4986,282.4571 C152.4986,282.3241 152.4936,282.1941 152.4936,282.0621 C149.1266,279.4991 144.9536,269.8921 143.2136,263.7161 C140.9736,267.7661 137.5976,272.2151 133.3176,276.4951 C127.6186,282.0511 121.5356,286.1061 116.5596,287.9981 C117.5436,295.6861 120.5406,302.2031 124.6876,306.2031 L124.6876,314.3541 C114.6526,316.3711 107.3976,322.0341 107.3976,328.8541 C107.3976,337.4081 135.6506,362.8101 149.9076,362.5511 C163.9046,362.5511 158.2016,337.4081 158.2016,328.8541" mask="url(#illustration-ministerium-f)"/>
        <path fill="#B7CBDC" d="M154.0038,327.689 L153.1458,319.786 C148.5658,316.064 143.1678,314.92 143.1678,314.92 L143.1678,306.98 C140.5028,309.342 137.6818,310.451 134.3548,310.451 C130.6818,310.451 124.6878,306.203 124.6878,306.203 L124.6858,311.184 L154.0038,327.689 Z" mask="url(#illustration-ministerium-f)"/>
        <path fill="#083358" d="M87.3637,406.9996 L178.1487,406.9996 L172.1987,341.5556 C172.1987,341.5556 170.3847,331.1866 162.3487,326.5206 C160.3197,325.3696 158.8537,324.4996 157.7937,323.8386 C156.9607,321.5836 156.4517,320.1416 156.4327,320.0896 L152.9797,318.0936 L155.4487,341.2266 C154.7117,342.3626 151.7627,346.0536 144.8807,345.0656 C143.2557,344.8866 141.7617,344.7906 140.3747,344.7016 C133.9627,344.2916 130.4297,344.0666 126.2827,335.9696 C120.9187,325.7496 117.0177,317.4466 116.9797,317.3636 L116.4647,316.2676 L106.3387,319.1606 C105.1557,319.3206 98.5137,320.6796 95.4047,331.3066 C92.3247,341.8266 81.2517,383.0206 81.1477,383.4056 C81.0127,383.8686 77.9087,394.8296 84.5117,403.3576 C85.4807,404.5686 86.4647,405.7986 87.3637,406.9996" mask="url(#illustration-ministerium-f)"/>
        <path fill="#FFF" d="M91.6918,276.0406 C91.6868,276.0396 91.6808,276.0406 91.6748,276.0396 C91.3128,256.8766 80.6708,241.6406 67.4178,241.6406 C54.5218,241.6406 44.0998,256.3586 43.2118,274.5326 C42.9668,274.4206 42.7188,274.3546 42.4688,274.3546 C40.7838,274.3546 39.4348,277.7266 40.1088,281.4356 C40.4458,285.1436 42.1318,287.8406 43.8178,287.8406 C43.9718,287.8406 44.1188,287.8036 44.2608,287.7496 C46.0148,295.9066 49.7268,302.7656 54.6068,307.1696 L54.6068,351.2346 L78.8808,351.2346 L78.8808,308.2786 C84.0508,304.2556 88.0918,297.6026 90.1608,289.5036 C90.2208,289.5126 90.2808,289.5266 90.3438,289.5266 C92.0288,289.8636 93.7148,286.8296 94.0518,283.1206 C94.3888,279.4116 93.3778,276.0406 91.6918,276.0406" mask="url(#illustration-ministerium-f)"/>
        <path fill="#B7CBDC" d="M55.871,313.5787 L73.574,324.4817 L78.926,312.2527 C75.666,313.6747 71.805,314.5107 67.646,314.5107 C62.808,314.5107 58.376,313.3797 54.829,311.5047 L55.871,313.5787 Z" mask="url(#illustration-ministerium-f)"/>
        <path fill="#3E73A2" d="M97.9311 265.4342C97.9311 262.8512 96.1131 260.6992 93.6881 260.1712 93.4541 257.7872 91.7541 255.8452 89.4911 255.2552 88.5521 253.6882 86.8891 252.6142 84.9561 252.5062 86.6471 255.0802 88.0641 258.0332 89.1611 261.2632 87.9421 262.2522 87.1471 263.7432 87.1471 265.4342 87.1471 265.6262 87.1841 265.8082 87.2041 265.9962 86.1891 266.4612 85.4811 267.4802 85.4811 268.6692 85.4811 269.5162 85.8431 270.2742 86.4141 270.8122 86.3891 271.0062 86.3551 271.1992 86.3551 271.4002 86.3551 272.7042 86.9051 273.8742 87.7781 274.7092 86.1021 279.5092 83.3561 287.0582 81.7021 289.9482 81.3441 290.5722 80.9231 291.0352 80.4611 291.3942 76.9111 290.3652 72.4751 289.9612 67.6461 289.9612 62.7041 289.9612 58.1701 290.3792 54.5801 291.4632 54.2941 291.1722 54.0231 290.8442 53.7841 290.4342 52.1181 287.5682 49.3621 280.1182 47.6561 275.3122 48.9831 274.5082 49.8791 273.0652 49.8791 271.4002 49.8791 271.1992 49.8451 271.0062 49.8191 270.8122 50.3911 270.2742 50.7521 269.5162 50.7521 268.6692 50.7521 267.4802 50.0441 266.4612 49.0291 265.9962 49.0491 265.8082 49.0861 265.6262 49.0861 265.4342 49.0861 263.2712 47.8041 261.4172 45.9651 260.5592 47.0351 257.6102 48.3821 254.8992 49.9591 252.5072 48.0301 252.6172 46.3701 253.6902 45.4321 255.2552 43.0061 255.8872 41.2081 258.0662 41.1911 260.6862 39.4811 261.5892 38.3031 263.3652 38.3031 265.4342 38.3031 267.3982 39.3631 269.1002 40.9321 270.0422 40.7981 270.4742 40.7051 270.9242 40.7051 271.4002 40.7051 273.1322 41.6761 274.6222 43.0931 275.4022 43.5121 281.0082 44.9521 298.4282 46.9151 302.4832 48.5451 309.3012 57.1921 314.5102 67.6461 314.5102 78.3801 314.5102 87.2191 309.0202 88.5001 301.9332 90.3261 297.9522 91.6851 282.1212 92.1651 275.8012 94.1001 275.2632 95.5291 273.5062 95.5291 271.4002 95.5291 270.9242 95.4351 270.4742 95.3011 270.0422 96.8701 269.1002 97.9311 267.3982 97.9311 265.4342M65.3129 406.9996L62.4099 357.3266 50.5789 317.8886C50.1419 316.6056 31.1279 325.9156 29.2309 327.1066 24.3179 330.1926 19.4569 334.0026 16.0969 338.7816 9.3449 348.3826 2.1859 392.7026-.0001 406.9996L65.3129 406.9996zM68.4519 406.9996L71.3319 359.0026 83.1639 319.5636C83.5999 318.2816 102.6139 327.5916 104.5109 328.7826 109.4239 331.8686 114.2849 335.6786 117.6459 340.4576 124.1509 349.7086 131.0359 391.1996 133.4839 406.9996L68.4519 406.9996z" mask="url(#illustration-ministerium-f)"/>
        <path fill="#0A3454" d="M26.1865,406.9996 L29.3445,379.2166 C29.3515,379.1586 29.3545,379.1016 29.3545,379.0446 C29.3535,378.2926 28.7895,377.6446 28.0235,377.5576 C27.1995,377.4546 26.4575,378.0556 26.3645,378.8786 L23.1665,406.9996 L26.1865,406.9996 Z M107.2515,406.9996 L110.2765,406.9996 L106.8355,380.3046 C106.7295,379.4816 105.9765,378.8946 105.1555,379.0086 C104.3995,379.1046 103.8475,379.7506 103.8475,380.4936 C103.8475,380.5586 103.8515,380.6226 103.8595,380.6866 L107.2515,406.9996 Z M52.6905,341.2076 L50.1815,316.4696 L54.5615,310.9746 L62.3715,326.5086 L58.6415,332.1726 C60.4685,332.3706 62.1995,332.4596 63.7085,332.3546 C66.6575,332.1446 70.4325,331.6666 74.3785,331.0426 L72.1695,327.6886 L79.3455,311.2946 L84.3605,317.6496 L81.8505,342.3896 L78.0485,336.6146 L71.3325,359.0026 L68.4525,406.9996 L65.3125,406.9996 L62.4105,357.3266 C62.4105,357.3266 59.1455,346.4446 56.0455,336.1126 L52.6905,341.2076 Z" mask="url(#illustration-ministerium-f)"/>
      </g>
    </g>
  </g>
</svg>
