<svg xmlns="http://www.w3.org/2000/svg" xmlns:xlink="http://www.w3.org/1999/xlink" width="445" height="445" viewBox="0 0 445 445">
  <defs>
    <polygon id="illustration-service-a" points="0 .962 371.141 .962 371.141 171.095 0 171.095"/>
    <polygon id="illustration-service-c" points="0 .016 371.141 .016 371.141 173.96 0 173.96"/>
    <polygon id="illustration-service-e" points="0 .202 371.141 .202 371.141 17 0 17"/>
  </defs>
  <g fill="none" fill-rule="evenodd">
    <rect width="445" height="445"/>
    <g transform="translate(35 35)">
      <path d="M187.5,0 C291.053391,0 375,83.9466094 375,187.5 C375,291.053391 291.053391,375 187.5,375 L0,375 L0,187.5 C0,83.9466094 83.9466094,0 187.5,0 Z" transform="rotate(90 187.5 187.5)"/>
      <path fill="#B7CBDC" d="M187.5,0 C291.053391,0 375,83.9466094 375,187.5 C375,291.053391 291.053391,375 187.5,375 L0,375 L0,187.5 C0,83.9466094 83.9466094,0 187.5,0 Z" transform="rotate(90 187.5 187.5)"/>
      <path d="M187.5,0 C291.053391,0 375,83.9466094 375,187.5 C375,291.053391 291.053391,375 187.5,375 L0,375 L0,187.5 C0,83.9466094 83.9466094,0 187.5,0 Z" transform="rotate(90 187.5 187.5)"/>
    </g>
    <g transform="translate(0 131)">
      <g transform="translate(0 85.984)">
        <mask id="illustration-service-b" fill="#fff">
          <use xlink:href="#illustration-service-a"/>
        </mask>
        <path fill="#3E73A2" d="M4.0002,171.0948 L367.1412,171.0948 C369.3412,171.0948 371.1412,169.2948 371.1412,167.0948 L371.1412,0.9618 C347.4832,16.6368 255.1032,72.2058 157.2372,55.4118 C43.6852,35.9278 0.6832,88.3358 0.6832,88.3358 L0.0002,88.9598 L0.0002,167.0948 C0.0002,169.2948 1.8002,171.0948 4.0002,171.0948" mask="url(#illustration-service-b)"/>
      </g>
      <g transform="translate(0 .984)">
        <mask id="illustration-service-d" fill="#fff">
          <use xlink:href="#illustration-service-c"/>
        </mask>
        <path fill="#E7EEF3" d="M367.1409,0.0157 L3.9999,0.0157 C1.7999,0.0157 -0.0001,1.8157 -0.0001,4.0157 L-0.0001,173.9597 L0.6829,173.3357 C0.6829,173.3357 43.6849,120.9277 157.2379,140.4117 C255.1029,157.2057 347.4839,101.6367 371.1409,85.9617 L371.1409,4.0157 C371.1409,1.8157 369.3409,0.0157 367.1409,0.0157" mask="url(#illustration-service-d)"/>
      </g>
      <line x1="260.408" x2="260.314" y1="169.073" y2="169.09" fill="#3E73A2"/>
      <path fill="#ECF8F6" d="M60.6775,151.8385 C85.8675,151.8385 106.2885,172.2595 106.2885,197.4485 C106.2885,222.6395 85.8675,243.0595 60.6775,243.0595 L15.0675,243.0595 L15.0675,197.4485 C15.0675,172.2595 35.4875,151.8385 60.6775,151.8385"/>
      <path fill="#083358" d="M72.7498,199.4049 L50.9528,212.4829 C49.8728,213.1319 48.4708,212.7809 47.8228,211.7009 C47.6098,211.3459 47.4978,210.9409 47.4978,210.5269 L47.4978,184.3709 C47.4978,183.1109 48.5198,182.0899 49.7788,182.0899 C50.1918,182.0899 50.5978,182.2019 50.9528,182.4149 L72.7498,195.4929 C73.8298,196.1409 74.1798,197.5429 73.5318,198.6229 C73.3398,198.9429 73.0708,199.2129 72.7498,199.4049"/>
      <g transform="translate(0 261.984)">
        <mask id="illustration-service-f" fill="#fff">
          <use xlink:href="#illustration-service-e"/>
        </mask>
        <path fill="#ECF8F6" d="M367.1409,17 L3.9999,17 C1.7999,17 -0.0001,15.2 -0.0001,13 L-0.0001,4.202 C-0.0001,2.002 1.7999,0.202 3.9999,0.202 L367.1409,0.202 C369.3409,0.202 371.1409,2.002 371.1409,4.202 L371.1409,13 C371.1409,15.2 369.3409,17 367.1409,17" mask="url(#illustration-service-f)"/>
      </g>
      <path fill="#083358" d="M25.7756,271.2096 L17.1156,276.4046 C16.6866,276.6626 16.1296,276.5236 15.8716,276.0946 C15.7876,275.9536 15.7426,275.7926 15.7426,275.6286 L15.7426,265.2356 C15.7426,264.7346 16.1486,264.3296 16.6496,264.3296 C16.8136,264.3296 16.9746,264.3736 17.1156,264.4586 L25.7756,269.6546 C26.2046,269.9126 26.3436,270.4696 26.0866,270.8976 C26.0096,271.0256 25.9026,271.1326 25.7756,271.2096"/>
      <path fill="#9EDED4" d="M350.3997,273.609 L36.0497,273.609 C34.7067,273.609 33.6067,272.509 33.6067,271.166 L33.6067,270.005 C33.6067,268.661 34.7067,267.561 36.0497,267.561 L350.3997,267.561 C351.7437,267.561 352.8427,268.661 352.8427,270.005 L352.8427,271.166 C352.8427,272.509 351.7437,273.609 350.3997,273.609"/>
      <path fill="#083358" d="M231.9954,31.089 C221.3354,24.42 209.2184,24.195 204.7224,29.583 C189.6274,32.946 178.2624,46.542 178.2624,63.044 C178.2624,71.423 181.1954,79.051 186.0554,84.973 C184.1034,86.791 182.7574,89.24 182.3344,92 C170.7794,94.072 162.0074,104.169 162.0074,116.321 C162.0074,121.772 163.7764,126.807 166.7654,130.894 C166.3964,132.055 166.1944,133.291 166.1944,134.573 C166.1944,141.28 171.6314,146.716 178.3374,146.716 C182.6984,146.716 186.5124,144.409 188.6534,140.957 C194.4384,140.51 199.6624,138.068 203.6474,134.324 C198.2634,131.818 194.7034,127.512 194.7034,122.614 C194.7034,117.333 198.8384,112.738 204.9404,110.348 L204.9404,100.412 C199.8154,96.002 196.1154,88.026 195.3984,78.646 C195.3954,78.61 195.3944,78.575 195.3914,78.539 C195.3564,78.059 195.3234,77.578 195.3034,77.09 C195.2784,76.509 195.2634,75.924 195.2634,75.334 C195.2634,74.016 195.3254,72.723 195.4364,71.454 C199.0824,70.475 204.1994,58.921 206.2014,51.911 C208.5564,56.096 211.9554,60.804 216.4024,65.251 C217.0934,65.942 217.7884,66.61 218.4854,67.254 C218.5824,67.342 218.6794,67.422 218.7754,67.51 C219.3764,68.059 219.9784,68.599 220.5804,69.111 C220.8124,69.309 221.0444,69.487 221.2764,69.68 C221.7424,70.066 222.2094,70.457 222.6734,70.819 C222.9324,71.023 223.1894,71.203 223.4484,71.399 C223.8834,71.727 224.3184,72.064 224.7504,72.372 C225.0034,72.552 225.2524,72.71 225.5044,72.883 C225.9364,73.181 226.3714,73.486 226.7984,73.762 C226.9994,73.891 227.1934,74 227.3914,74.124 C227.8654,74.419 228.3394,74.718 228.8044,74.985 C228.9744,75.083 229.1394,75.162 229.3084,75.256 C229.7934,75.526 230.2784,75.796 230.7524,76.033 C230.9064,76.11 231.0524,76.169 231.2054,76.242 C231.6854,76.474 232.1664,76.706 232.6324,76.902 C232.5824,78.353 232.4544,79.769 232.2704,81.153 C232.2634,81.212 232.2554,81.27 232.2464,81.329 C232.1634,81.939 232.0674,82.541 231.9604,83.135 C231.9424,83.232 231.9254,83.33 231.9074,83.427 C231.7974,84.008 231.6774,84.582 231.5444,85.148 C231.5264,85.225 231.5114,85.303 231.4924,85.38 C231.3404,86.013 231.1764,86.638 230.9964,87.25 C230.9754,87.318 230.9524,87.383 230.9334,87.45 C230.7804,87.957 230.6204,88.456 230.4494,88.946 C230.3704,89.174 230.2854,89.397 230.2024,89.621 C230.0824,89.946 229.9594,90.269 229.8314,90.585 C229.7314,90.832 229.6294,91.075 229.5254,91.315 C229.3974,91.611 229.2664,91.9 229.1324,92.187 C229.0614,92.336 228.9994,92.491 228.9294,92.637 C234.8744,89.102 239.6614,83.767 242.5884,77.402 C242.7554,77.278 242.9334,77.169 243.0814,77.021 C243.8174,76.33 244.2464,75.378 244.4214,74.239 C251.7764,62.811 242.7314,37.805 231.9954,31.089"/>
      <path fill="#ECF8F6" d="M204.9407,100.4118 L204.9407,110.3488 C203.6077,110.8708 202.3757,111.5038 201.2527,112.2208 L213.8987,124.9198 C214.4217,125.4428 215.2067,125.4428 215.7297,124.9198 L228.1437,112.4368 C226.8397,111.5668 225.3727,110.8178 223.7727,110.2208 L223.7727,99.8828 C228.8247,95.0928 232.2937,86.6618 232.6317,76.9028 C227.7297,74.8308 221.9307,70.7788 216.4027,65.2508 C211.9557,60.8038 208.5557,56.0958 206.2017,51.9118 C204.1987,58.9208 199.0827,70.4748 195.4367,71.4538 C195.3257,72.7228 195.2637,74.0158 195.2637,75.3338 C195.2637,86.1338 199.2207,95.4898 204.9407,100.4118"/>
      <path fill="#9EDED4" d="M178.842,187.8854 C178.831,187.8744 186.762,163.2434 186.806,163.2424 C186.986,163.2424 187.266,170.8134 187.266,170.9434 L187.949,190.2524 L241.15,190.2524 L241.821,167.4694 L241.872,165.8784 L248.072,190.2524 L263.501,190.2524 C262.887,180.9064 258.92,145.5514 258.036,136.0144 C257.841,133.8984 257.341,131.9794 256.64,130.2394 C252.663,121.8624 243.406,118.3814 243.193,118.3814 L228.754,111.8234 L215.73,124.9194 C215.206,125.4434 214.422,125.4434 213.899,124.9194 L200.605,111.5704 L185.958,117.3244 C185.696,117.3244 171.834,122.5554 170.788,135.6334 C169.987,145.0384 163.567,178.4524 163.118,186.9064 C163.118,186.9064 178.936,187.9794 178.842,187.8854"/>
      <path fill="#ECF8F6" d="M181.1252,190.2458 C181.0292,186.7948 176.2292,184.0138 170.3142,184.0138 C164.3992,184.0138 159.6002,186.7948 159.5042,190.2458 L181.1252,190.2458 Z"/>
      <path fill="#B7CBDC" d="M205.3293,105.0163 L223.3863,117.2213 L228.2153,112.3653 C227.2853,111.7573 225.5413,110.8703 223.9023,110.0773 L223.7723,104.6273 L223.7723,99.8823 C220.9483,102.5613 217.6323,104.1053 214.0953,104.1053 C210.8003,104.1053 207.6703,102.7603 204.9403,100.4123 L204.9403,104.8663 L205.4863,105.0513 L205.3293,105.0163 Z"/>
      <path fill="#E7EEF3" d="M292.8752,190.2526 L143.7082,190.2526 C141.5072,190.2526 139.7082,192.0536 139.7082,194.2526 L139.7082,232.0936 C139.7082,234.2936 141.5072,236.0936 143.7082,236.0936 L163.9132,236.0936 L166.4692,257.1556 L268.5982,257.1556 L272.1352,236.0936 L292.8752,236.0936 C295.0752,236.0936 296.8752,234.2936 296.8752,232.0936 L296.8752,194.2526 C296.8752,192.0536 295.0752,190.2526 292.8752,190.2526"/>
      <polygon fill="#B7CBDC" points="163.816 236.102 165.475 248.964 269.964 249.019 272.135 236.102"/>
      <path fill="#083358" d="M277.2581,190.1755 L267.6311,190.1755 C267.6381,190.2005 267.6451,190.2275 267.6531,190.2525 L264.5591,190.2525 C264.5511,190.2275 264.5441,190.2005 264.5361,190.1755 L254.0771,190.1755 L254.0771,189.9255 C254.0771,188.5545 255.1981,187.4335 256.5701,187.4335 L263.6001,187.4335 C261.0261,180.6125 257.1371,175.2685 252.5191,172.3525 C251.4561,173.6345 249.8531,174.4515 248.0581,174.4515 C247.3501,174.4515 246.6751,174.3185 246.0491,174.0855 C244.5591,175.0995 242.7611,175.6925 240.8231,175.6925 C235.6841,175.6925 231.5181,171.5265 231.5181,166.3865 C231.5181,161.2465 235.6841,157.0805 240.8231,157.0805 C244.7881,157.0805 248.1651,159.5655 249.5051,163.0585 C252.0021,163.7015 253.8491,165.9625 253.8491,168.6595 C253.8491,168.9995 253.8141,169.3305 253.7581,169.6545 C259.2841,173.0535 263.8751,179.3875 266.7421,187.4335 L274.7661,187.4335 C276.1371,187.4335 277.2581,188.5545 277.2581,189.9255 L277.2581,190.1755 Z"/>
    </g>
    <g transform="translate(305 70)">
      <path fill="#3E73A2" d="M133.8793,4.4707 L76.4873,4.4707 L76.4873,14.7337 C76.4873,18.0477 73.7753,20.7597 70.4613,20.7597 L59.9813,20.7597 L59.9813,113.7447 C59.9813,117.0587 62.6913,119.7707 66.0063,119.7707 L133.8793,119.7707 C137.1923,119.7707 139.9043,117.0587 139.9043,113.7447 L139.9043,10.4957 C139.9043,7.1817 137.1923,4.4707 133.8793,4.4707"/>
      <path fill="#083358" d="M0.0004,40.9424 L9.8494,37.3584 C12.9634,36.2244 14.5844,32.7494 13.4504,29.6344 L9.9394,19.9904 L0.0004,40.9424 Z M76.4874,4.4704 L76.4874,14.7334 C76.4874,18.0474 73.7754,20.7594 70.4614,20.7594 L59.9804,20.7594 L76.4874,4.4704 Z"/>
      <path fill="#0A406E" d="M66.0062,119.771 L72.9122,119.771 L39.5272,131.922 C36.4122,133.056 32.9372,131.435 31.8032,128.321 L0.0002,40.943 L0.0002,40.942 L9.8492,37.358 C12.9632,36.224 14.5832,32.749 13.4502,29.635 L9.9412,19.991 L63.8702,0.362 C66.9852,-0.772 70.4602,0.849 71.5942,3.963 L73.0232,7.889 L59.9812,20.759 L59.9812,113.745 C59.9812,117.059 62.6922,119.771 66.0062,119.771"/>
      <path fill="#CFDCE8" d="M59.9808,83.4009 L43.5028,89.3989 C42.8658,89.6299 42.5338,90.3419 42.7658,90.9809 L43.1928,92.1549 C43.4248,92.7929 44.1368,93.1249 44.7748,92.8929 L59.9808,87.3589 L59.9808,83.4009 Z M59.9808,90.9859 L45.9408,96.0959 C45.3028,96.3279 44.9708,97.0399 45.2038,97.6779 L45.6308,98.8529 C45.8628,99.4899 46.5748,99.8219 47.2118,99.5899 L59.9808,94.9429 L59.9808,90.9859 Z M59.9808,75.8169 L41.0658,82.7009 C40.4278,82.9329 40.0958,83.6449 40.3278,84.2829 L40.7548,85.4579 C40.9878,86.0949 41.6998,86.4269 42.3368,86.1949 L59.9808,79.7739 L59.9808,75.8169 Z M59.9808,59.2479 L35.7408,68.0699 C35.1028,68.3029 34.7708,69.0149 35.0028,69.6519 L35.4298,70.8269 C35.6628,71.4649 36.3748,71.7969 37.0118,71.5649 L59.9808,63.2049 L59.9808,59.2479 Z M59.9808,44.0789 L30.8658,54.6749 C30.2268,54.9079 29.8958,55.6199 30.1268,56.2569 L30.5548,57.4319 C30.7878,58.0699 31.4998,58.4019 32.1368,58.1699 L59.9808,48.0359 L59.9808,44.0789 Z M59.9808,23.2569 L17.1868,38.8329 C16.1248,39.2189 15.5708,40.4059 15.9588,41.4689 L16.6698,43.4269 C17.0578,44.4899 18.2438,45.0439 19.3068,44.6559 L59.9808,29.8529 L59.9808,23.2569 Z M59.9808,51.6629 L33.3028,61.3729 C32.6658,61.6049 32.3338,62.3169 32.5648,62.9549 L32.9928,64.1299 C33.2248,64.7679 33.9368,65.0999 34.5748,64.8669 L59.9808,55.6199 L59.9808,51.6629 Z M124.8348,107.2029 L124.8348,105.9529 C124.8348,105.2749 124.2788,104.7189 123.5998,104.7189 L75.9858,104.7189 C75.3068,104.7189 74.7518,105.2749 74.7518,105.9529 L74.7518,107.2029 C74.7518,107.8819 75.3068,108.4379 75.9858,108.4379 L123.5998,108.4379 C124.2788,108.4379 124.8348,107.8819 124.8348,107.2029 L124.8348,107.2029 Z M124.8348,100.0759 L124.8348,98.8259 C124.8348,98.1469 124.2788,97.5919 123.5998,97.5919 L75.9858,97.5919 C75.3068,97.5919 74.7518,98.1469 74.7518,98.8259 L74.7518,100.0759 C74.7518,100.7549 75.3068,101.3099 75.9858,101.3099 L123.5998,101.3099 C124.2788,101.3099 124.8348,100.7549 124.8348,100.0759 L124.8348,100.0759 Z M124.8348,92.9489 L124.8348,91.6989 C124.8348,91.0199 124.2788,90.4639 123.5998,90.4639 L75.9858,90.4639 C75.3068,90.4639 74.7518,91.0199 74.7518,91.6989 L74.7518,92.9489 C74.7518,93.6279 75.3068,94.1829 75.9858,94.1829 L123.5998,94.1829 C124.2788,94.1829 124.8348,93.6279 124.8348,92.9489 L124.8348,92.9489 Z M122.7328,81.7879 L76.8528,81.7879 C75.7218,81.7879 74.7958,80.8619 74.7958,79.7309 L74.7958,77.6469 C74.7958,76.5159 75.7218,75.5899 76.8528,75.5899 L122.7328,75.5899 C123.8648,75.5899 124.7908,76.5159 124.7908,77.6469 L124.7908,79.7309 C124.7908,80.8619 123.8648,81.7879 122.7328,81.7879 L122.7328,81.7879 Z"/>
      <path fill="#FFDC6C" d="M37.4613,86.1738 C37.9043,87.3908 37.2763,88.7368 36.0593,89.1798 C34.8423,89.6238 33.4953,88.9958 33.0533,87.7778 C32.6093,86.5608 33.2373,85.2148 34.4543,84.7718 C35.6723,84.3288 37.0183,84.9568 37.4613,86.1738 M27.2613,58.1488 C27.7043,59.3658 27.0763,60.7118 25.8583,61.1548 C24.6423,61.5978 23.2953,60.9708 22.8533,59.7528 C22.4093,58.5358 23.0373,57.1898 24.2543,56.7468 C25.4723,56.3038 26.8173,56.9308 27.2613,58.1488 M105.1753,47.1258 L103.7213,46.0508 L99.4203,43.0788 C96.1313,40.8018 94.4873,39.5368 94.4873,37.1338 C94.4873,35.8048 95.3723,34.8568 96.6373,34.0978 L98.2183,35.2358 L102.5823,38.2088 C105.9343,40.5488 107.3893,41.7498 107.3893,44.1528 C107.3893,45.4818 106.4403,46.4308 105.1753,47.1258 M114.4723,43.0148 C114.4723,38.8408 112.2593,35.9318 108.0853,33.0858 L103.4683,29.9238 C100.6213,27.9628 99.0403,27.1408 99.0403,24.9908 C99.0403,23.6628 100.3053,22.5878 102.7083,22.5878 C105.4283,22.5878 107.2633,23.9158 108.2113,24.6738 L110.4883,18.9828 C108.9703,17.9078 106.8203,16.3898 102.0763,16.3898 C95.4983,16.3898 91.7043,20.3108 91.7043,24.9268 C91.7043,26.9508 92.0843,28.6588 93.0323,30.2398 C89.8073,31.9478 87.4663,34.5408 87.4663,38.2718 C87.4663,42.4458 89.6813,45.3548 93.7283,48.2008 L98.3453,51.2998 C101.4433,53.5138 102.8993,54.7148 102.8993,56.6758 C102.8993,58.0668 101.6973,58.9518 99.0403,58.9518 C95.9403,58.9518 93.7283,57.1818 92.5263,55.9168 L90.0603,62.0518 C91.8303,63.5698 94.6133,65.3408 99.6103,65.3408 C106.5043,65.3408 110.4243,61.2298 110.4243,56.6128 C110.4243,54.5258 109.9183,52.6908 108.8443,51.0468 C112.1953,49.2768 114.4723,46.7468 114.4723,43.0148"/>
    </g>
  </g>
</svg>
