<svg xmlns="http://www.w3.org/2000/svg" xmlns:xlink="http://www.w3.org/1999/xlink" width="445" height="445" viewBox="0 0 445 445">
  <defs>
    <polygon id="illustration-soziales-a" points=".174 .82 124.361 .82 124.361 94 .174 94"/>
    <polygon id="illustration-soziales-c" points="0 .82 126.069 .82 126.069 90.155 0 90.155"/>
    <polygon id="illustration-soziales-e" points=".593 .385 65.688 .385 65.688 66.663 .593 66.663"/>
    <polygon id="illustration-soziales-g" points=".871 .733 42.002 .733 42.002 120 .871 120"/>
  </defs>
  <g fill="none" fill-rule="evenodd">
    <rect width="445" height="445"/>
    <g transform="translate(35 35)">
      <path d="M187.5,0 C291.053391,0 375,83.9466094 375,187.5 C375,291.053391 291.053391,375 187.5,375 L0,375 L0,187.5 C0,83.9466094 83.9466094,0 187.5,0 Z" transform="rotate(90 187.5 187.5)"/>
      <path fill="#B7CBDC" d="M187.5,0 C291.053391,0 375,83.9466094 375,187.5 C375,291.053391 291.053391,375 187.5,375 L0,375 L0,187.5 C0,83.9466094 83.9466094,0 187.5,0 Z" transform="rotate(90 187.5 187.5)"/>
      <path d="M187.5,0 C291.053391,0 375,83.9466094 375,187.5 C375,291.053391 291.053391,375 187.5,375 L0,375 L0,187.5 C0,83.9466094 83.9466094,0 187.5,0 Z" transform="rotate(90 187.5 187.5)"/>
    </g>
    <g transform="translate(290 80)">
      <g transform="translate(30 .18)">
        <mask id="illustration-soziales-b" fill="#fff">
          <use xlink:href="#illustration-soziales-a"/>
        </mask>
        <path fill="#3E73A2" d="M59.7084,35.9709 L43.8674,36.3879 C43.4674,36.7849 42.9804,37.2289 41.7974,38.0179 C38.2354,40.7899 34.2664,42.0069 30.3484,41.5159 C25.4204,40.1779 23.2194,35.8719 23.1274,35.6899 L23.0744,35.5839 L23.0744,34.4049 L39.5304,17.9489 L26.9924,17.9489 L26.1384,17.9489 L20.1564,20.9389 L17.3424,19.8569 L0.1744,52.0459 L6.1874,56.4189 L13.8214,48.7849 C14.9334,47.6739 16.5404,47.0359 18.2334,47.0359 C19.9274,47.0359 21.5354,47.6739 22.6464,48.7849 L23.9284,50.0669 C25.1764,51.3149 25.7834,52.6879 25.7834,54.2649 C25.7834,54.5329 25.7514,54.7709 25.7304,55.0199 C27.8964,54.3629 30.4004,54.8299 32.0464,56.4749 L33.3274,57.7569 C34.4384,58.8679 35.0764,60.5539 35.0764,62.3829 C35.0764,63.1479 34.9594,63.8839 34.7474,64.5669 C36.2724,64.6299 37.7744,65.1949 38.8824,66.3019 L40.1634,67.5839 C41.8874,69.3069 42.4984,71.8409 41.9474,73.9739 C43.3674,74.0759 44.6934,74.6769 45.7184,75.7019 L47.0004,76.9839 C49.3364,79.3209 50.2194,83.8709 47.8544,86.2359 L47.4274,86.6629 L53.0554,92.2909 C54.3374,93.5729 56.0464,93.9999 57.3274,93.9999 C59.0364,93.9999 60.3184,93.5729 61.6004,92.2909 L63.3094,90.5819 C63.6644,90.2269 63.9354,89.8709 64.1734,89.5159 L47.5704,72.5599 C46.9524,71.9409 46.9524,71.1979 47.5744,70.5749 C48.1964,69.9539 48.9394,69.9519 49.5634,70.5749 L68.2044,89.6129 C70.8604,90.2399 72.5864,89.0969 73.5634,88.4459 L75.2724,86.7369 C76.3904,85.6189 76.9484,84.4989 76.9704,83.2619 L56.1304,63.6009 C55.4974,62.9689 55.4974,62.2249 56.1194,61.6019 C56.7414,60.9809 57.4844,60.9799 58.1084,61.6019 L78.3404,80.6889 C78.9604,80.3639 79.5254,79.9199 79.9724,79.4729 L81.6814,77.7639 C82.6754,76.7699 83.2254,75.6319 83.4364,74.5169 C83.3814,74.4179 83.3424,74.3019 83.3274,74.1449 L63.8224,55.9119 C63.5014,55.5909 63.3434,55.2569 63.3434,54.9059 C63.3434,54.5559 63.5014,54.2209 63.8114,53.9119 C64.4304,53.2929 65.1804,53.2929 65.7994,53.9119 L84.9594,71.8219 C85.6644,71.4929 86.3104,70.9989 86.8084,70.5009 L88.5184,68.7919 C90.2964,67.0129 90.8384,64.6189 90.1484,62.6049 L59.7084,35.9709 Z M123.5524,47.0019 C123.1254,49.1379 121.8434,51.2749 119.7074,52.1289 L109.0254,57.6829 C107.7434,58.1109 106.4624,58.5379 105.1804,58.5379 C103.3964,58.5379 101.6194,57.9179 100.1074,56.7929 C100.1264,56.6509 100.1264,56.5189 100.1264,56.4019 L100.1264,56.2769 L79.5594,17.7129 L79.4714,17.5949 C79.4304,17.5539 79.3864,17.5129 79.3434,17.4709 C78.7214,15.7789 78.7794,14.0859 79.1174,12.3939 C79.5454,10.2579 80.8264,8.1219 82.9634,7.2669 L93.6454,1.7129 C95.7804,0.8579 97.9174,0.4309 100.0534,1.2849 C102.1894,2.1399 103.8984,3.4219 105.1804,5.5579 L123.5524,40.5929 C124.4064,42.3019 124.8344,44.8659 123.5524,47.0019 L123.5524,47.0019 Z" mask="url(#illustration-soziales-b)"/>
      </g>
      <g transform="translate(0 .18)">
        <mask id="illustration-soziales-d" fill="#fff">
          <use xlink:href="#illustration-soziales-c"/>
        </mask>
        <path fill="#0A406E" d="M75.8657,84.2467 C76.5887,83.5237 76.6857,82.6227 76.6417,81.9937 C76.5597,80.8437 75.9407,79.6757 75.0647,79.0187 L73.7297,77.6907 C72.7787,76.7397 71.2387,76.6367 69.8697,77.3577 C69.7617,77.4147 69.6647,77.4967 69.5847,77.5907 L62.9457,85.3847 C62.6807,85.6967 62.6407,86.1497 62.8647,86.4927 C63.0227,86.7327 63.1987,86.9607 63.4017,87.1637 L64.2567,88.0177 C65.5377,89.2997 67.2467,90.1547 68.9557,90.1547 C69.3347,90.1547 69.7117,90.1067 70.0847,90.0277 L75.8657,84.2467 Z M66.9677,76.0557 L67.3207,75.7017 C67.5337,75.4887 67.7627,75.3007 67.9997,75.1247 L68.5747,74.4497 C69.2677,73.7537 69.5997,72.8917 69.5357,71.9937 C69.4697,71.0577 68.9927,70.1927 68.2287,69.6197 L66.8927,68.2907 C65.4077,66.8057 63.5337,66.8037 62.0467,68.2907 L51.9217,79.5017 C51.6207,79.8337 51.5587,80.3237 51.7727,80.7177 C52.0537,81.2367 52.3867,81.7027 52.7197,82.0367 L53.5747,82.8917 C54.8567,84.1727 56.5657,85.0277 58.2747,85.0277 C58.7647,85.0277 59.2477,84.9527 59.7147,84.8517 L66.9677,76.0557 Z M109.1177,25.2117 L101.0007,18.3757 C100.5727,17.9487 100.1457,17.9487 99.7187,17.9487 L73.4277,17.9487 C73.3547,18.0687 73.2687,18.1877 73.1547,18.3027 L55.9347,35.1017 C57.2967,37.0097 58.9907,38.2637 60.9757,38.8297 C63.5177,39.5597 66.2857,38.6607 69.9377,35.9207 C71.1167,35.0367 71.6777,34.5637 71.8997,34.3677 C72.0527,33.6837 72.8627,33.6837 73.2287,33.6837 L90.3057,33.2567 L90.3067,33.2567 C90.9327,33.2567 91.1827,33.4307 91.2347,33.9477 L120.0447,59.1557 L126.0687,54.8527 L109.1177,25.2117 Z M25.3027,55.1197 L25.3027,54.9947 L25.3617,54.8847 L44.6237,18.8107 L44.6017,18.8027 C45.4567,16.6667 45.8847,14.5307 45.4567,12.3937 C45.0297,10.2577 43.3207,8.5487 41.6117,7.2667 L30.9297,1.7127 C29.2207,0.8577 26.6577,0.4307 24.5207,1.2857 C22.3857,2.1397 20.6767,3.4217 19.3937,5.5587 L1.0217,40.5927 C0.1677,42.7287 -0.2593,44.8657 0.1677,47.0017 C0.5947,49.1387 2.3037,50.8477 4.0127,52.1287 L14.6947,57.6837 C15.9757,58.1107 17.2587,58.5377 18.5397,58.5377 C21.0507,58.5377 23.5517,57.3207 25.3027,55.1637 L25.3027,55.1197 Z M60.9857,65.3737 L61.3397,65.0197 C62.1247,64.2347 62.5457,63.0867 62.4657,61.9497 C62.3997,61.0277 62.0187,60.2617 61.3927,59.7917 L60.0567,58.4637 C58.5407,56.9467 56.7287,56.9457 55.2107,58.4637 L43.1677,70.5067 C42.3777,71.2967 42.2037,72.5137 42.7347,73.4967 C43.0737,74.1237 43.5487,74.6997 44.1757,75.2007 L45.0297,76.0557 C45.7827,76.8087 46.6837,77.4107 47.6447,77.7787 C48.5827,78.1387 49.6467,77.8277 50.3187,77.0827 L60.0397,66.3207 L60.9857,65.3737 Z M42.5547,67.0547 C41.8467,67.8197 40.6647,67.9597 39.8307,67.3337 C39.5437,67.1197 39.2797,66.8877 39.0487,66.6557 L38.1937,65.8007 C36.9397,64.7567 36.3027,63.3027 36.1757,61.7907 C36.1077,60.9827 36.3837,60.1837 36.9437,59.5987 L45.8097,50.3467 C47.3277,48.8287 49.1397,48.8287 50.6577,50.3467 L51.9397,51.6277 C52.6847,52.3727 53.0747,53.5187 53.0747,54.2657 C53.0747,55.0707 53.0747,55.7667 52.3667,56.4757 L52.0127,56.8287 L42.5547,67.0547 Z" mask="url(#illustration-soziales-d)"/>
      </g>
      <path fill="#FFC409" d="M144.5805,45.4729 C144.5805,44.1909 143.2985,42.9099 142.0175,42.9099 C140.7345,42.9099 139.4525,44.1909 139.4525,45.4729 C139.4525,46.7549 140.7345,48.0359 142.0175,48.0359 C143.2985,48.0359 144.5805,46.7549 144.5805,45.4729 M13.8405,42.9099 C13.8405,44.1909 12.5585,45.4729 11.2765,45.4729 C9.9945,45.4729 8.7125,44.1909 8.7125,42.9099 C8.7125,41.6279 9.9945,40.3459 11.2765,40.3459 C12.5585,40.3459 13.8405,41.6279 13.8405,42.9099"/>
    </g>
    <g transform="translate(45 8)">
      <g transform="translate(131 .615)">
        <mask id="illustration-soziales-f" fill="#fff">
          <use xlink:href="#illustration-soziales-e"/>
        </mask>
        <path fill="#0A406E" d="M65.688,33.5238 C65.688,51.7508 51.024,66.6628 33.141,66.6628 C15.257,66.6628 0.593,51.7508 0.593,33.5238 C0.593,15.2978 15.257,0.3848 33.141,0.3848 C51.024,0.3848 65.688,15.2978 65.688,33.5238" mask="url(#illustration-soziales-f)"/>
      </g>
      <path fill="#FFF" d="M228.5201,197.5133 L230.3081,212.7573 L229.2351,309.8533 C229.2351,309.8533 230.3081,337.6903 218.8631,343.6553 C207.0601,349.6193 207.0601,189.8913 207.0601,189.8913 L221.7241,188.8973 L228.5201,197.5133 Z"/>
      <g transform="translate(174 281.615)">
        <mask id="illustration-soziales-h" fill="#fff">
          <use xlink:href="#illustration-soziales-g"/>
        </mask>
        <path fill="#9EDED4" d="M42.0015,116.6991 L42.0015,0.7331 C42.0015,0.7331 3.3745,4.7101 1.2285,4.0481 C-0.8215,3.4141 6.5905,110.3991 7.2605,120.0001 L20.4015,119.5541 C21.0085,119.5201 27.8325,118.8201 28.4335,118.7301 L42.0015,116.6991 Z" mask="url(#illustration-soziales-h)"/>
      </g>
      <path fill="#FFF" d="M192.0386,108.0353 C192.0386,102.4663 186.2176,97.5003 177.7316,94.8403 L177.7316,79.0703 C185.0506,72.6603 189.8926,61.2023 189.8926,48.0573 C189.8926,45.1323 189.6456,42.2953 189.1926,39.5743 C185.8096,40.4513 178.8506,40.1043 164.4976,40.1043 C154.5386,40.1043 146.4046,34.5273 142.5656,28.0813 C139.9246,33.8103 138.3886,40.6653 138.3886,48.0573 C138.3886,62.2443 144.0306,74.4633 152.3376,80.4943 L152.3376,94.0553 C142.3916,96.3723 135.5286,101.6573 135.5286,108.0353 C135.5286,114.1363 142.5146,119.5143 152.3376,121.9283 L152.3376,122.9513 L158.0536,122.9513 C159.9086,123.1643 161.8256,123.2793 163.7836,123.2793 C165.7416,123.2793 167.6586,123.1643 169.5146,122.9513 L177.7316,122.9513 L177.7316,121.2303 C186.2176,118.5703 192.0386,113.6043 192.0386,108.0353"/>
      <path fill="#3E73A2" d="M161.5064,93.7662 C161.7524,94.0372 162.1264,94.3402 162.5984,94.6682 L176.9404,106.5172 C180.4644,104.1542 183.0974,100.5322 183.0974,95.4462 L187.3234,97.3312 C184.7804,95.7482 181.6344,94.4632 178.0654,93.5662 L177.6994,86.1642 L177.6994,79.0992 C173.7704,82.5302 169.1304,84.5102 164.1404,84.5102 C159.8164,84.5102 155.7564,83.0182 152.1924,80.3892 L152.3054,86.1642 L161.5064,93.7662 Z"/>
      <path fill="#0A406E" d="M231.7388 199.1701C231.7388 199.1701 233.5268 158.4091 232.8118 137.5321 232.0958 116.6541 212.0678 108.3701 212.0678 108.3701L183.0968 95.4461C183.0968 105.7191 172.3668 110.0271 165.2138 110.0271 158.4178 110.0271 144.1118 107.0451 144.1118 95.7771L116.5718 108.0391C116.5718 108.0391 96.8998 114.6661 91.8928 135.2121 86.8848 155.4271 77.2288 197.1821 77.2288 197.1821L121.2208 199.1701 122.6518 187.2401 121.9368 199.1701 112.2798 292.6221 219.5788 291.2951 207.7758 199.5021 231.7388 199.1701zM112.6373 68.6032C112.6373 45.7372 91.8923 27.5112 66.4983 27.5112 63.6923 27.5112 60.9483 27.7462 58.2773 28.1722 55.4563 20.0472 47.3073 14.2552 37.5283 14.2552 25.3673 14.2552 15.7103 23.2032 15.7103 34.4702 15.7103 41.2492 19.3043 47.2902 24.8243 50.9122 21.9663 56.2572 20.3603 62.2502 20.3603 68.6032 20.3603 91.4692 41.1043 109.6952 66.4983 109.6952 80.4633 109.6952 93.0133 104.0762 101.4893 95.2762 103.7453 95.2532 105.6043 94.6712 106.9143 93.4572 108.8313 91.7922 109.2973 88.9702 108.5263 85.4592 111.1583 80.3032 112.6373 74.5972 112.6373 68.6032"/>
      <path fill="#3E73A2" d="M70.4332 78.5451C64.3522 72.9111 59.7032 66.9461 56.4842 61.6441 54.0732 69.4621 48.3612 81.7501 43.6272 85.4251 43.6202 85.7821 43.6082 86.1381 43.6082 86.4981 43.6082 100.1821 49.0202 112.0361 56.8422 118.2721L56.8422 161.7231 82.5932 161.7231 82.5932 117.5971C88.4682 112.4341 92.7852 103.9421 94.2282 93.9091 87.2122 91.5191 78.6012 86.1131 70.4332 78.5451M3.1919 260.1452L3.9079 320.4582C3.9079 320.4582-3.2451 339.6782 11.0609 358.2362 25.3669 376.4622 21.7909 286.9882 21.7909 286.9882L23.5789 251.1982 29.6589 207.7862 6.0529 203.8102 3.1919 260.1452z"/>
      <path fill="#FFDC6C" d="M59.1207,29.0094 L25.4667,54.9874 C23.7267,56.3304 21.2037,56.0064 19.8617,54.2664 C18.5177,52.5264 18.8427,50.0044 20.5827,48.6604 L54.2377,22.6824 C55.9767,21.3394 58.4987,21.6644 59.8427,23.4044 C61.1847,25.1434 60.8607,27.6664 59.1207,29.0094"/>
      <path fill="#0A3454" d="M82.5933,117.5973 C78.7313,120.9923 74.1973,122.9513 69.3603,122.9513 C64.9553,122.9513 60.7663,121.3283 57.0933,118.4763 L57.1993,123.9453 L82.9513,137.5323 L82.5933,123.6143 L82.5933,117.5973 Z"/>
      <path fill="#9EDED4" d="M30.0171,207.4547 L31.8051,252.8547 C31.8051,252.8547 12.1341,288.9757 11.4181,322.4457 C11.0971,352.5687 15.6991,393.6897 16.6221,401.6147 L120.1521,401.6147 C120.3261,400.2387 125.8651,356.0557 125.5131,323.1087 C125.1551,289.6397 105.1261,253.5177 105.1261,253.5177 L107.2721,208.1177 L107.9871,220.7107 L133.0241,213.0887 C133.0241,213.0887 131.2361,181.2747 129.4471,163.3807 C127.6591,145.4857 107.6301,138.5257 107.6301,138.5257 L86.5281,131.5667 L68.2871,146.8107 L50.4041,130.2417 L29.3021,137.8637 C29.3021,137.8637 8.9141,144.4917 7.4841,162.7177 C5.6961,180.6127 3.9081,212.4257 3.9081,212.4257 L28.2281,220.0477 L30.0171,207.4547 Z"/>
      <path fill="#FFF" d="M33.2359,147.8048 C33.2359,147.8048 42.1769,159.0728 37.1709,166.3628 C35.3819,169.0138 32.8789,170.3398 30.3749,171.0018 C26.0829,172.3278 21.7909,171.6648 17.8569,169.6768 L7.8419,164.3748 C6.0539,163.3798 4.2649,162.0548 3.1929,160.3978 C1.0469,157.4148 -1.4571,152.4448 1.0469,146.1478 C5.6959,136.2068 13.9219,132.8928 19.2869,135.2128 C25.0099,137.2008 33.2359,147.8048 33.2359,147.8048"/>
      <path fill="#B7CBDC" d="M140.8824,250.2028 L140.8824,247.3388 C137.8124,248.9638 134.4354,249.8728 130.8784,249.8728 C127.4114,249.8728 123.8714,248.9108 120.8634,247.3888 L120.8634,252.5348 L141.2404,266.4408 C143.3864,264.1218 144.8174,260.4758 145.1744,254.8428 C144.1014,254.5118 142.6714,254.1808 140.8824,253.1858 L140.8824,250.2028 Z"/>
      <path fill="#3E73A2" d="M143.396,172.9904 C141.965,172.9904 140.535,173.3224 139.104,173.6534 C138.031,172.9904 136.958,172.6594 135.527,172.6594 C112.279,172.6594 95.112,201.8214 88.674,223.3614 C76.155,229.3264 67.571,241.5874 67.571,255.5064 C67.571,275.3894 85.097,291.6274 106.557,291.6274 C121.221,291.6274 133.739,284.3364 140.535,273.0704 C145.542,275.0584 150.907,276.3834 156.63,276.3834 C178.089,276.3834 195.615,260.1454 195.615,240.2624 C195.615,220.0474 164.856,172.9904 143.396,172.9904"/>
      <path fill="#FFF" d="M139.8194,253.5182 L139.8194,247.8672 C148.7004,243.7442 155.2314,233.6762 156.4254,221.6902 C156.2534,221.6942 156.0924,221.7052 155.9144,221.7052 C140.9734,221.7052 115.3124,210.4472 109.7884,199.3342 C106.8504,204.5692 105.1264,210.9222 105.1264,217.7282 C105.1264,231.1702 111.5854,242.5542 120.8634,247.3882 L120.8634,253.5182 C109.7764,256.1682 101.9074,262.7962 101.9074,270.7492 C101.9074,278.7032 109.7764,285.3302 120.8634,287.9822 L120.8634,288.3132 L123.3674,288.3132 C125.8704,288.6452 128.0164,288.9762 130.8784,288.9762 C133.7394,288.9762 135.8854,288.6452 138.3884,288.3132 L139.8194,288.3132 L139.8194,287.9822 C151.2644,285.6632 159.4904,278.7032 159.4904,270.7492 C159.4904,262.7962 151.2644,255.8372 139.8194,253.5182"/>
      <path fill="#0A406E" d="M110.1285 401.6149L109.4185 256.5009C98.6885 258.8199 91.8925 267.7669 91.8925 267.7669 91.8925 267.7669 82.2355 283.3429 80.0895 335.0389 73.2705 358.2069 68.2205 395.0299 67.3485 401.6149L110.1285 401.6149zM194.4576 401.6149C193.7726 396.0579 188.9686 358.3019 182.0236 334.7079 179.8776 283.0109 170.2206 267.4359 170.2206 267.4359 170.2206 267.4359 163.4256 258.4889 152.6956 256.1689L151.9836 401.6149 194.4576 401.6149z"/>
      <path fill="#FFDC6C" d="M151.9834,401.6149 L152.6904,257.3259 C150.4594,256.4949 147.9254,255.3889 145.1744,254.8429 C144.4594,270.7499 132.3084,271.0819 130.8784,271.4129 C129.0894,271.0819 118.0024,270.4129 117.2864,254.1749 C114.3854,254.6549 111.7344,255.5289 109.4184,256.5219 L110.1284,401.6149 L151.9834,401.6149 Z"/>
    </g>
  </g>
</svg>
