<?xml version="1.0" encoding="utf-8"?>
<!-- Generator: Adobe Illustrator 24.3.0, SVG Export Plug-In . SVG Version: 6.00 Build 0)  -->
<svg version="1.1" id="Ebene_1" xmlns="http://www.w3.org/2000/svg" xmlns:xlink="http://www.w3.org/1999/xlink" x="0px" y="0px"
	 viewBox="0 0 82 82" style="enable-background:new 0 0 82 82;" xml:space="preserve">
<path id="Fill" style="fill:#FFC409;" d="M74.9,36l-12-3.2c-0.1,0-0.2,0-0.3,0c-0.2,0-0.4,0.1-0.6,0.2c-0.3,0.2-0.5,0.4-0.6,0.8
	c-0.1,0.3,0,0.7,0.1,1c0.2,0.3,0.4,0.5,0.8,0.6l12,3.2c0.7,0.2,1.4-0.2,1.6-0.9C75.9,36.9,75.5,36.2,74.9,36L74.9,36z M12,21.5
	c-1.1,0-2,0.9-2,2v1.1h4v-1.1C14,22.4,13.1,21.5,12,21.5L12,21.5z M73.7,23.5c0-1.1-0.9-2-2-2s-2,0.9-2,2v1.1h4V23.5z M42,32.3
	l1.1,0.4L42,34.8l-5.9,0.1L42,32.3z"/>
<path style="fill:#0A406E;" d="M80.5,32.8c-0.4-0.7-1-1.1-1.7-1.3l-19.9-5.3c-0.2-0.1-0.4,0-0.6,0.1l-11.7,6.5
	c-0.2,0.1-0.3,0.3-0.4,0.5L36.4,70l0,0c-0.4,1.5,0.5,3.1,2,3.5l27.2,7.3c0.2,0.1,0.5,0.1,0.7,0.1c0.5,0,1-0.1,1.4-0.4
	c0.7-0.4,1.1-1,1.3-1.7L80.8,35C81,34.2,80.9,33.5,80.5,32.8z M57.6,28.4l-1.5,5.5c-0.1,0.3-0.3,0.6-0.6,0.8s-0.6,0.2-0.9,0.1
	l-5.8-1.6L57.6,28.4z M79.3,34.6L67.5,78.4c-0.1,0.3-0.3,0.6-0.6,0.8c-0.3,0.2-0.6,0.2-1,0.1L38.8,72c-0.7-0.2-1.1-0.9-0.9-1.5l0,0
	l9.6-35.8l6.7,1.8c0.2,0.1,0.5,0.1,0.7,0.1c0.5,0,1-0.1,1.4-0.4c0.6-0.4,1.1-1,1.3-1.7l1.7-6.4l19,5.1c0.3,0.1,0.6,0.3,0.8,0.6
	C79.3,33.9,79.4,34.2,79.3,34.6z"/>
<path style="fill:#0A406E;" d="M75.3,34.5l-12-3.2c-0.7-0.2-1.5-0.1-2.2,0.3s-1.1,1-1.3,1.7s-0.1,1.5,0.3,2.2c0.4,0.7,1,1.1,1.7,1.3
	l12,3.2c0.2,0.1,0.5,0.1,0.7,0.1c1.3,0,2.4-0.8,2.8-2.1C77.7,36.4,76.8,34.9,75.3,34.5z M75.8,37.6c-0.2,0.7-0.9,1.1-1.6,0.9
	l-12-3.2c-0.3-0.1-0.6-0.3-0.8-0.6s-0.2-0.6-0.1-1c0.1-0.3,0.3-0.6,0.6-0.8c0.2-0.1,0.4-0.2,0.6-0.2c0.1,0,0.2,0,0.3,0l12,3.2
	C75.5,36.2,75.9,36.9,75.8,37.6z"/>
<path style="fill:#0A406E;" d="M82.1,81.1l-7.6-9.9c-0.3-0.3-0.8-0.4-1.1-0.2c-0.4,0.3-0.4,0.8-0.2,1.1l6.6,8.7h-7.6
	c-0.4,0-0.8,0.4-0.8,0.8s0.4,0.8,0.8,0.8h9.2c0.3,0,0.6-0.2,0.7-0.4C82.3,81.7,82.3,81.4,82.1,81.1z"/>
<path style="fill:#0A406E;" d="M45.4,65.3l15,4c0.1,0,0.1,0,0.2,0c0.4,0,0.7-0.2,0.8-0.6s-0.1-0.9-0.6-1l-15-4
	c-0.4-0.1-0.9,0.1-1,0.6C44.7,64.7,44.9,65.2,45.4,65.3z"/>
<path style="fill:#0A406E;" d="M56.4,80.8h-54l2.8-3.6h31.9c0.4,0,0.8-0.4,0.8-0.8s-0.4-0.8-0.8-0.8H6.6l2.5-3.2h23
	c0.4,0,0.8-0.4,0.8-0.8s-0.4-0.8-0.8-0.8H10.4l2.8-3.5h20c0.4,0,0.8-0.4,0.8-0.8s-0.4-0.8-0.8-0.8H32V46.5h7.2
	c0.4,0,0.8-0.4,0.8-0.8c0-0.4-0.4-0.8-0.8-0.8H10.8v-4.3h30c0.4,0,0.8-0.4,0.8-0.8c0-0.4-0.4-0.8-0.8-0.8h-30l30.7-11.9l5.3,2
	c0.4,0.2,0.9,0,1-0.5c0.2-0.4,0-0.9-0.5-1l-5.6-2.2c-0.2-0.1-0.4-0.1-0.6,0l-14,5.5c0-3.3,0.3-6.5,0.7-9.5c3.8-0.4,8.5-0.7,14.1-0.7
	c4.5,0,8.4,0.2,11.7,0.5c0.2,1.2,0.3,2.4,0.4,3.6c0,0.4,0.4,0.8,0.9,0.7c0.4,0,0.8-0.4,0.7-0.9c-0.1-1.1-0.2-2.2-0.4-3.3
	c7.3,0.7,11.3,2,11.6,2.8c0,0.1,0,0.3,0,0.4h-0.4c-0.4,0-0.8,0.4-0.8,0.8s0.4,0.8,0.8,0.8H76v2.3c0,0.4,0.4,0.8,0.8,0.8
	s0.8-0.4,0.8-0.8v-3.1c0-0.4-0.4-0.8-0.8-0.8h-1.5c0,0,0,0,0-0.1v-1.1c0-2-1.6-3.6-3.6-3.6c-1.5,0-2.7,0.9-3.3,2.1
	c-0.2-1.6-0.5-3.1-0.9-4.5h0.1c0.4,0,0.8-0.4,0.8-0.8c0-0.9-0.8-1.6-2-2.1c-0.8-1.9-1.9-3.6-3.1-5.2C63.7,9.3,64,9,64,8.6
	c0-1.4-1.9-2.5-4.6-3.3c-4.6-3.8-10.5-6.1-17.1-6.2C41.8-1,41.3-1,40.8-1c-0.7,0-1.5,0.1-2.2,0.3c-5.5,0.6-10.5,2.8-14.4,6.1
	c-2.6,0.8-4.4,1.8-4.4,3.2c0,0.4,0.2,0.7,0.6,0.8c-1.2,1.6-2.2,3.3-3.1,5.1C15.9,15,15,15.8,15,16.7c0,0.4,0.4,0.8,0.8,0.8
	c0.1,0,0.2,0,0.3-0.1c-0.4,1.4-0.8,2.9-1,4.4c-0.6-1.2-1.8-2-3.2-2c-2,0-3.6,1.6-3.6,3.6v1.1c0,0,0,0,0,0.1H6.8
	C6.4,24.6,6,25,6,25.4v7.7l0,0l0,0v6.8c0,0.4,0.4,0.8,0.8,0.8h2.4v5c0,0.4,0.4,0.8,0.8,0.8h2v19.4c0,0.1,0,0.2,0.1,0.3l-7.6,9.6
	C4.2,75.9,4.1,76,4,76.3l-3.9,4.9c-0.1,0.2-0.2,0.5,0,0.8c0.1,0.3,0.4,0.5,0.7,0.5h55.6c0.4,0,0.8-0.4,0.8-0.8
	C57.2,81.2,56.9,80.8,56.4,80.8z M26.8,46.5h3.6v19.2h-3.6V46.5z M18.8,46.5h6.4v19.2h-6.4V46.5z M13.6,46.5h3.6v19.2h-3.6V46.5z
	 M69.7,24.5v-1.1c0-1.1,0.9-2,2-2s2,0.9,2,2v1.1c0,0,0,0,0,0.1L69.7,24.5C69.7,24.6,69.7,24.6,69.7,24.5z M25.6,31.6l-1.9,0.7h-0.1
	h-5.8v-6.9c0-0.4-0.4-0.8-0.8-0.8h-0.1c0.1-0.1,0.1-0.2,0.1-0.4c0.2-0.7,3.4-1.8,9.3-2.6c-0.4,3.1-0.7,6.3-0.7,9.7
	C25.6,31.4,25.6,31.5,25.6,31.6z M42,19.1c-0.5,0-7.3,0-13.8,0.7c0.4-2.2,0.9-4.2,1.5-6.1c3.4-0.3,7.4-0.5,12.1-0.5
	c3.9,0,7.3,0.1,10.3,0.3c0.6,1.9,1.1,3.9,1.5,6C47.7,19.2,42.5,19.1,42,19.1z M30.2,12.1c0.9-2.6,2-4.8,3.3-6.6
	C36.1,5.3,39,5.1,42,5.1c2.1,0,4.2,0.1,6.2,0.2c1.3,1.8,2.4,4,3.4,6.7c-5-0.3-9.3-0.3-9.7-0.3C41.2,11.6,35.9,11.6,30.2,12.1z
	 M66.8,22.2c-2.5-1.3-7.1-2-11.7-2.4c-0.4-2.1-0.8-4.2-1.4-6c5.6,0.5,9.4,1.3,11.4,2C66,17.7,66.6,19.9,66.8,22.2z M58.6,6.8
	c2.3,2,4.2,4.3,5.6,7c-3-0.8-7.1-1.4-11-1.7c-0.9-2.5-1.9-4.8-3.1-6.6c2.5,0.2,4.7,0.5,6.7,0.9C57.5,6.5,58.1,6.6,58.6,6.8z
	 M55.5,4.5c-2.1-0.3-4.3-0.6-6.5-0.7c-0.8-1-1.7-1.9-2.6-2.7C49.7,1.7,52.8,2.9,55.5,4.5z M38.9,0.9c0.9-0.1,1.9-0.2,2.9-0.2
	c0.1,0,0.2,0,0.3,0c1.6,0.3,3.2,1.4,4.7,2.9c-1.8-0.1-3.4-0.1-4.9-0.1c-2,0-4.5,0.1-7.1,0.3C36.1,2.3,37.5,1.3,38.9,0.9z M34.6,1.7
	c-0.7,0.6-1.4,1.4-2,2.2c-1.5,0.1-3,0.3-4.4,0.6C30.1,3.3,32.3,2.4,34.6,1.7z M25,6.8c0.6-0.2,1.2-0.3,2-0.5
	c1.3-0.3,2.8-0.5,4.4-0.7c-1.1,1.9-2.2,4.1-3,6.6c-3.2,0.3-6.5,0.8-8.9,1.4C20.9,11.1,22.8,8.7,25,6.8z M18.5,15.6
	c1.8-0.6,5-1.3,9.4-1.7c-0.6,1.9-1,3.9-1.4,6.1c-4,0.5-7.8,1.2-9.7,2.4C17,20,17.6,17.7,18.5,15.6z M10,24.5v-1.1c0-1.1,0.9-2,2-2
	s2,0.9,2,2v1.1c0,0,0,0,0,0.1L10,24.5C10,24.6,10,24.6,10,24.5z M7.6,26.2h8.6v6.1H7.6V26.2z M7.6,38.6v-4.7h12L7.6,38.6z"/>
<path style="fill:#0A406E;" d="M43.2,32.7c0.4,0.2,0.9,0,1-0.5c0.2-0.4,0-0.9-0.5-1l-1.4-0.6c-0.2-0.1-0.4-0.1-0.6,0L31.8,35
	c-0.3,0.2-0.5,0.5-0.5,0.9c0.1,0.4,0.4,0.6,0.8,0.6l0,0l9.8-0.1c0.4,0,0.8-0.4,0.8-0.8c0-0.4-0.4-0.8-0.8-0.8L36,34.9l6-2.6
	L43.2,32.7z"/>
<path style="fill:#0A406E;" d="M65.3,43.9c-0.4-0.8-1-1.4-1.7-1.9s-1.6-0.8-2.5-1c-0.6-0.1-1.1-0.1-1.7-0.1c-0.6,0-1.1,0.2-1.6,0.4
	s-0.9,0.5-1.3,1c-0.4,0.4-0.6,0.9-0.7,1.6c-0.2,1.1,0.1,2.1,0.9,2.9l-0.9,0.4L55,47.8c-0.3,0.2-0.5,0.5-0.7,0.8s-0.3,0.7-0.4,1.1
	c-0.1,0.5-0.1,1,0,1.4s0.3,0.8,0.6,1.1s0.6,0.7,1,0.9l2.5,1.6l1,0.7c0.3,0.2,0.4,0.5,0.5,0.8s0.1,0.6,0.1,0.9c0,0.3-0.2,0.5-0.3,0.7
	c-0.2,0.2-0.4,0.3-0.6,0.4l-0.8,0.2L57,58.3c-0.6-0.1-1.1-0.3-1.6-0.7s-0.8-0.8-1-1.4l0,0c-0.2-0.4-0.5-0.7-1-0.8
	c-0.7-0.1-1.4,0.3-1.6,1.1c0,0.2,0,0.5,0.1,0.7l0,0v0.1l0,0c0.2,0.5,0.4,0.9,0.7,1.2c0.3,0.4,0.7,0.7,1.1,1c0.4,0.3,0.9,0.5,1.3,0.8
	c0.5,0.2,0.9,0.3,1.4,0.4c0.6,0.1,1.2,0.1,1.8,0.1s1.2-0.2,1.7-0.5s1-0.6,1.4-1.1s0.7-1,0.8-1.7c0.1-0.5,0.1-1,0-1.5
	s-0.3-0.9-0.7-1.3c0.6-0.2,1.1-0.5,1.5-0.9c0.5-0.5,0.8-1,0.9-1.6c0.1-0.6,0.1-1.1-0.1-1.5c-0.1-0.5-0.4-0.9-0.7-1.3
	c-0.3-0.4-0.7-0.7-1.1-1.1L59,45.9c-0.2-0.2-0.4-0.5-0.5-0.7s-0.1-0.5-0.1-0.8s0.2-0.5,0.3-0.6c0.2-0.2,0.3-0.3,0.6-0.4l0.7-0.2
	l0.7,0.1c0.5,0.1,0.9,0.3,1.4,0.7c0.4,0.3,0.7,0.8,1,1.3l0,0c0.2,0.4,0.5,0.6,0.9,0.7c0.7,0.1,1.4-0.3,1.5-1
	C65.6,44.5,65.5,44.2,65.3,43.9L65.3,43.9z M60.5,50l0.5,0.5l0.3,0.6c0.1,0.2,0.1,0.5,0,0.8s-0.2,0.6-0.4,0.8
	c-0.2,0.3-0.5,0.4-0.8,0.5l-2.8-1.9L56.8,51l-0.3-0.6c-0.1-0.2-0.1-0.5,0-0.8c0.1-0.4,0.3-0.8,0.6-0.9c0.3-0.2,0.6-0.3,1-0.4
	L60.5,50z"/>
<path style="fill:#0A406E;" d="M63.8,72.5l-19-5.1c-0.4-0.1-0.9,0.1-1,0.6c-0.1,0.4,0.1,0.9,0.6,1l19,5.1c0.1,0,0.1,0,0.2,0
	c0.4,0,0.7-0.2,0.8-0.6C64.5,73,64.2,72.6,63.8,72.5z"/>
</svg>
