<?xml version="1.0" encoding="utf-8"?>
<!-- Generator: Adobe Illustrator 24.3.0, SVG Export Plug-In . SVG Version: 6.00 Build 0)  -->
<svg version="1.1" id="Ebene_1" xmlns="http://www.w3.org/2000/svg" xmlns:xlink="http://www.w3.org/1999/xlink" x="0px" y="0px"
	 viewBox="0 0 82 82" style="enable-background:new 0 0 82 82;" xml:space="preserve">
<path id="Outline" style="fill-rule:evenodd;clip-rule:evenodd;fill:#0A406E;" d="M79.5,15.9L62.7,78.7c-0.1,0.6-0.5,1-1,1.3
	s-1.1,0.4-1.6,0.2l-39-10.5c-1.1-0.3-1.8-1.5-1.5-2.6l13.9-51.7l10,2.7c0.3,0.1,0.6,0.1,0.9,0.1c1.6,0,3.1-1.1,3.6-2.8l0.2-0.7
	l21,5.6c0.1,0,0.1,0,0.2,0c0.4,0,0.7-0.2,0.8-0.6c0.1-0.4-0.1-0.9-0.6-1l-21-5.6l2-7.3L78,13.3c0.6,0.1,1,0.5,1.3,1
	C79.6,14.8,79.7,15.4,79.5,15.9L79.5,15.9z M46.7,13.5L46.7,13.5L46.7,13.5L46.3,15c-0.3,1.1-1.4,1.8-2.5,1.6l-9.2-2.5l14-7.7
	L46.7,13.5z M80.7,13.5c-0.5-0.9-1.3-1.5-2.3-1.8L49.9,4.1c-0.2-0.1-0.4,0-0.6,0.1l-16.8,9.3c-0.2,0.1-0.3,0.3-0.4,0.5L18,66.7
	c-0.5,2,0.7,4.1,2.7,4.6l39,10.5c0.3,0.1,0.6,0.1,1,0.1c0.7,0,1.3-0.2,1.9-0.5c0.9-0.5,1.5-1.3,1.8-2.3l16.8-62.8
	C81.3,15.4,81.2,14.3,80.7,13.5L80.7,13.5z M56.7,72c-0.1,0-0.1,0-0.2,0l-27.2-7.3c-0.4-0.1-0.7-0.6-0.6-1s0.6-0.7,1-0.6l27.2,7.3
	c0.4,0.1,0.7,0.6,0.6,1C57.4,71.8,57.1,72,56.7,72L56.7,72z M52.4,65.3c-0.1,0-0.1,0-0.2,0l-21.5-5.8c-0.4-0.1-0.7-0.6-0.6-1
	s0.6-0.7,1-0.6l21.5,5.8c0.4,0.1,0.7,0.6,0.6,1C53.1,65.1,52.8,65.3,52.4,65.3L52.4,65.3z M14.3,45.7c-0.4,0-0.7-0.2-0.8-0.6
	c-0.1-0.4,0.1-0.9,0.6-1l6.4-1.7c0.4-0.1,0.9,0.1,1,0.6c0.1,0.4-0.1,0.9-0.6,1l-6.4,1.7C14.4,45.7,14.3,45.7,14.3,45.7L14.3,45.7z
	 M12.3,39c-0.4,0-0.7-0.2-0.8-0.6c-0.1-0.4,0.1-0.9,0.6-1l8.8-2.3c0.4-0.1,0.9,0.1,1,0.6c0.1,0.4-0.1,0.9-0.6,1L12.5,39
	C12.4,39,12.3,39,12.3,39L12.3,39z M12.8,20c0.3,1.1-0.3,2.3-1.4,2.6l-9.2,2.5l8.3-13.7L12.8,20z M43.6,3.8c-0.5-2-2.6-3.2-4.6-2.7
	L10.5,8.8c-0.2,0-0.4,0.2-0.5,0.3L0.1,25.5C0,25.7,0,26,0,26.2L14.2,79c0.3,1,0.9,1.8,1.8,2.3c0.6,0.3,1.2,0.5,1.9,0.5
	c0.3,0,0.7,0,1-0.1L32.1,78c0.4-0.1,0.7-0.6,0.6-1c-0.1-0.4-0.6-0.7-1-0.6L18.3,80c-0.6,0.1-1.1,0.1-1.6-0.2c-0.5-0.3-0.9-0.8-1-1.3
	L1.9,26.8l0,0l9.9-2.7c1.9-0.5,3.1-2.6,2.5-4.6l-2.5-9.4V10l27.6-7.4C40.5,2.3,41.7,3,42,4.1c0.1,0.4,0.6,0.7,1,0.6
	C43.5,4.6,43.7,4.2,43.6,3.8L43.6,3.8z M47.9,39.6l4.6,3.5c0.3-0.1,0.6-0.3,0.9-0.6c0.4-0.4,0.6-0.7,0.7-1.2c0.1-0.4,0.1-0.7,0-1
	l-0.5-1l-0.8-0.9l-4-3.3c-0.5,0.1-1,0.3-1.4,0.5s-0.6,0.6-0.8,1.2c-0.1,0.3-0.1,0.7,0,1l0.5,1L47.9,39.6z M52.4,44.7
	c-0.2,0-0.3-0.1-0.5-0.2l-5-3.8l-0.1-0.1l-0.9-1c-0.1-0.1-0.1-0.1-0.1-0.2l-0.6-1.1c0,0,0-0.1-0.1-0.2c-0.1-0.6-0.1-1.2,0-1.8
	c0.3-1,0.8-1.8,1.6-2.2c0.7-0.3,1.4-0.6,2.2-0.7c0.2,0,0.5,0,0.6,0.2l4.4,3.5l0.1,0.1l0.9,1.1c0,0.1,0.1,0.1,0.1,0.2l0.5,1.2v0.1
	c0.2,0.6,0.2,1.2,0,1.9S55,43,54.4,43.6l0,0C53.8,44.1,53.2,44.5,52.4,44.7C52.5,44.7,52.4,44.7,52.4,44.7L52.4,44.7z M37.5,50.1
	L37.5,50.1c0.3,0.9,0.7,1.6,1.2,2.2c0.6,0.7,1.2,1.4,1.9,1.9s1.5,1,2.3,1.4s1.6,0.7,2.4,0.9c1,0.3,2.1,0.4,3.2,0.3
	c1.1,0,2.1-0.2,3-0.6c0.9-0.4,1.8-0.9,2.4-1.7c0.7-0.7,1.2-1.7,1.4-2.8c0.2-0.9,0.3-1.8,0.2-2.6c-0.1-0.7-0.4-1.4-1-2.1
	c-0.2-0.2-0.2-0.5-0.1-0.8c0.1-0.3,0.3-0.5,0.6-0.5c0.9-0.2,1.8-0.7,2.6-1.4s1.3-1.5,1.6-2.6c0.2-0.9,0.2-1.7,0-2.5
	s-0.6-1.5-1.1-2.2l0,0c-0.5-0.7-1.1-1.4-1.8-2l-5.7-4.7l-0.1-0.1c-0.5-0.5-0.8-1.1-1-1.6c-0.2-0.7-0.3-1.3-0.1-2
	c0.2-0.6,0.5-1.2,0.9-1.6s0.9-0.6,1.4-0.8l1.4-0.2c0.1,0,0.2,0,0.2,0l1.4,0.2c1.1,0.3,2.1,0.8,2.9,1.6c0.8,0.7,1.4,1.6,1.8,2.7v0.1
	c0.2,0.5,0.6,0.8,1.1,1c0.9,0.2,1.7-0.3,1.9-1.2c0.1-0.4,0-0.9-0.2-1.3c0-0.1-0.1-0.1-0.1-0.2c-0.6-1.3-1.5-2.4-2.7-3.2
	c-1.3-0.9-2.7-1.6-4.2-1.9c-1-0.2-2-0.3-3-0.3s-2,0.2-2.9,0.5s-1.6,0.8-2.3,1.5c-0.6,0.6-1.1,1.5-1.3,2.5c-0.5,1.8-0.1,3.4,1.2,4.7
	c0.2,0.2,0.3,0.5,0.2,0.7c-0.1,0.3-0.3,0.5-0.5,0.6L45,32.6l-1.5,1c-0.4,0.3-0.8,0.7-1.1,1.2s-0.6,1.1-0.7,1.8
	c-0.2,0.8-0.2,1.6-0.1,2.3c0.2,0.7,0.5,1.4,0.9,1.9c0.4,0.6,1,1.2,1.6,1.7l4.5,3.3l1.8,1.5c0.6,0.6,1,1.2,1.2,1.9
	c0.2,0.6,0.2,1.3,0,2.1c-0.2,0.6-0.5,1.2-0.9,1.6c-0.4,0.4-0.9,0.7-1.5,0.9h-0.1L47.6,54c-0.1,0-0.2,0-0.2,0L46,53.8
	c-1.3-0.3-2.3-0.9-3.3-1.7s-1.7-1.8-2-3.1c0,0,0,0,0-0.1c-0.2-0.6-0.6-1-1.2-1.1c-0.9-0.2-1.8,0.3-2,1.2c-0.1,0.3-0.1,0.6,0,0.9
	C37.4,50,37.5,50,37.5,50.1L37.5,50.1z M55.7,20.2c1.7,0.4,3.3,1.2,4.8,2.2c1.5,1.1,2.6,2.4,3.3,3.9c0.4,0.7,0.6,1.6,0.4,2.4
	c-0.4,1.7-2.2,2.8-3.9,2.3c-0.9-0.2-1.7-0.9-2.1-1.8c0,0-0.1-0.1-0.1-0.2c-0.3-0.9-0.8-1.5-1.5-2.1s-1.4-1-2.2-1.2l-1.1-0.1L52,25.9
	c-0.2,0.1-0.4,0.2-0.7,0.4c-0.2,0.2-0.4,0.4-0.4,0.8c-0.1,0.4-0.1,0.7,0,1.1c0.1,0.3,0.4,0.7,0.7,1.1l5.7,4.7
	c0.8,0.7,1.5,1.5,2.1,2.3s1,1.7,1.3,2.7s0.3,2.1,0,3.3c-0.3,1.3-1,2.5-2,3.4c-0.7,0.6-1.4,1.1-2.2,1.4c0.4,0.7,0.6,1.3,0.7,2
	c0.1,1,0.1,2.1-0.2,3.2c-0.3,1.4-1,2.6-1.8,3.5c-0.9,0.9-1.9,1.6-3,2.1s-2.3,0.7-3.6,0.7c-0.2,0-0.4,0-0.6,0c-1,0-2.1-0.1-3.1-0.4
	c-0.9-0.2-1.8-0.6-2.8-1c-0.9-0.5-1.8-1-2.6-1.6s-1.5-1.4-2.2-2.2c-0.6-0.8-1.1-1.6-1.4-2.6l0.7-0.4l-0.7,0.3v-0.1
	c0-0.1,0-0.2,0-0.2c-0.1-0.5-0.1-1,0-1.5c0.4-1.8,2.2-2.8,4-2.4c1.1,0.3,1.9,1,2.3,2.1c0,0.1,0,0.1,0.1,0.2c0.2,0.9,0.7,1.7,1.5,2.3
	c0.8,0.7,1.6,1.1,2.6,1.3l1.2,0.1l1.3-0.2c0.3-0.1,0.6-0.3,0.9-0.5c0.2-0.2,0.4-0.5,0.5-0.8c0.1-0.5,0.1-0.9,0-1.2
	c-0.1-0.4-0.4-0.8-0.7-1.2l-2-1.6l-4.5-3.3c-0.8-0.6-1.4-1.3-1.9-2s-0.9-1.6-1.1-2.5c-0.2-0.9-0.2-1.9,0.1-3c0.2-0.8,0.5-1.6,1-2.3
	c0.4-0.6,0.9-1.2,1.5-1.7l1.7-1.1c0.1,0,0.1-0.1,0.2-0.1l0.7-0.2c-1-1.5-1.3-3.3-0.8-5.2c0.3-1.3,0.9-2.4,1.7-3.3
	c0.8-0.8,1.8-1.5,2.8-1.9c1.1-0.4,2.2-0.6,3.4-0.6C53.4,19.8,54.6,20,55.7,20.2z M22.7,23c1.5,0,2.9,1.1,3.3,2.6
	c0.2,0.9,0,1.6-0.5,2.4c-0.4,0.8-1.2,1.3-2,1.5l0,0l-10.7,2.9c-0.3,0.1-0.6,0.1-0.9,0.1c-1.5,0-2.8-1-3.2-2.4
	c-0.5-1.8,0.6-3.6,2.3-4l0,0l10.7-2.9C22.1,23,22.4,23,22.7,23z M22.7,24.6c-0.1,0-0.3,0-0.4,0.1l0,0l-10.7,2.9
	c-0.9,0.2-1.4,1.2-1.2,2.1c0.2,0.8,0.9,1.3,1.6,1.3c0.1,0,0.3,0,0.4-0.1l0,0L23.1,28c0.9-0.2,1.4-1.2,1.2-2.1
	C24.1,25.1,23.4,24.6,22.7,24.6z"/>
<path id="Fill" style="fill:#FFC409;" d="M49.6,33.6l4.4,3.5l0.1,0.1l0.9,1.1c0,0.1,0.1,0.1,0.1,0.2l0.5,1.2v0.1
	c0.2,0.6,0.2,1.2,0,1.9s-0.5,1.3-1.1,1.9l0,0c-0.6,0.5-1.2,0.9-2,1.1c-0.1,0-0.1,0-0.2,0c-0.2,0-0.3-0.1-0.5-0.2l-5-3.8l-0.1-0.1
	l-0.9-1c-0.1-0.1-0.1-0.1-0.1-0.2l-0.6-1.1c0,0,0-0.1-0.1-0.1c-0.1-0.6-0.1-1.2,0-1.8c0.3-1,0.8-1.8,1.6-2.2
	c0.7-0.3,1.4-0.6,2.2-0.7C49.1,33.4,49.4,33.5,49.6,33.6 M62.2,26.9c-0.6-1.3-1.5-2.4-2.7-3.2c-1.3-0.9-2.7-1.6-4.2-1.9
	c-1-0.2-2-0.3-3-0.3s-2,0.2-2.9,0.5s-1.6,0.8-2.3,1.5C46.5,24.1,46,25,45.8,26c-0.5,1.8-0.1,3.4,1.2,4.7c0.2,0.2,0.3,0.5,0.2,0.7
	c-0.1,0.3-0.3,0.5-0.5,0.6L45,32.6l-1.5,1c-0.4,0.3-0.8,0.7-1.1,1.2s-0.6,1.1-0.7,1.8c-0.2,0.8-0.2,1.6-0.1,2.3
	c0.2,0.7,0.5,1.4,0.9,1.9c0.4,0.6,1,1.2,1.6,1.7l4.5,3.3l1.8,1.5c0.6,0.6,1,1.2,1.2,1.9c0.2,0.6,0.2,1.3,0,2.1
	c-0.2,0.6-0.5,1.2-0.9,1.6c-0.4,0.4-0.9,0.7-1.5,0.9h-0.1L47.6,54c-0.1,0-0.2,0-0.2,0L46,53.8c-1.3-0.3-2.3-0.9-3.3-1.7
	s-1.7-1.8-2-3.1l0,0c-0.2-0.6-0.6-1-1.2-1.1c-0.9-0.2-1.8,0.3-2,1.2c-0.1,0.3-0.1,0.6,0,0.9v0.1l0,0c0.3,0.8,0.7,1.6,1.2,2.2
	c0.6,0.7,1.2,1.4,1.9,1.9s1.5,1,2.3,1.4s1.6,0.7,2.4,0.9c1,0.3,2.1,0.4,3.2,0.3c1.1,0,2.1-0.2,3-0.6c0.9-0.4,1.8-0.9,2.4-1.7
	c0.7-0.7,1.2-1.7,1.4-2.8c0.2-0.9,0.3-1.8,0.2-2.6c-0.1-0.7-0.4-1.4-1-2.1c-0.2-0.2-0.2-0.5-0.1-0.8s0.3-0.5,0.6-0.5
	c0.9-0.2,1.8-0.7,2.6-1.4s1.3-1.5,1.6-2.6c0.2-0.9,0.2-1.7,0-2.5s-0.6-1.5-1.1-2.2l0,0c-0.5-0.7-1.1-1.4-1.8-2l-5.7-4.7l-0.1-0.1
	c-0.5-0.5-0.8-1.1-1-1.6c-0.2-0.7-0.3-1.3-0.1-2c0.2-0.6,0.5-1.2,0.9-1.6s0.8-0.6,1.4-0.8l1.4-0.2c0.1,0,0.1,0,0.2,0l1.4,0.2
	c1.1,0.3,2.1,0.8,2.9,1.6c0.8,0.7,1.4,1.6,1.8,2.7v0.1c0.2,0.5,0.6,0.8,1.1,1c0.9,0.2,1.7-0.3,1.9-1.2c0.1-0.4,0-0.9-0.2-1.3
	C62.3,27.1,62.2,27,62.2,26.9 M23.1,27.9l-10.7,2.9c-0.9,0.2-1.8-0.3-2.1-1.2l0,0c-0.2-0.9,0.3-1.8,1.2-2.1l10.7-2.9
	c0.9-0.2,1.8,0.3,2.1,1.2C24.6,26.7,24,27.7,23.1,27.9"/>
</svg>
