<?xml version="1.0" encoding="utf-8"?>
<!-- Generator: Adobe Illustrator 24.3.0, SVG Export Plug-In . SVG Version: 6.00 Build 0)  -->
<svg version="1.1" id="Ebene_1" xmlns="http://www.w3.org/2000/svg" xmlns:xlink="http://www.w3.org/1999/xlink" x="0px" y="0px"
	 viewBox="0 0 82 82" style="enable-background:new 0 0 82 82;" xml:space="preserve">
<path id="Outline" style="fill-rule:evenodd;clip-rule:evenodd;fill:#0A406E;" d="M31.7,42.5c-1,1-2.3,1.5-3.7,1.5l-16.1,0.1h-0.1
	c-2.8,0-5.2-2.2-5.2-5L6.4,18.3c0-1.3,0.5-2.6,1.5-3.5c1-1,2.3-1.5,3.7-1.5l16.1-0.1h0.1c2.8,0,5.2,2.2,5.2,5L33.2,39
	C33.2,40.3,32.6,41.5,31.7,42.5L31.7,42.5z M31.4,44.7v4.1L8.6,49.1V45c1,0.5,2.1,0.8,3.3,0.8H12l16-0.2
	C29.2,45.6,30.4,45.3,31.4,44.7L31.4,44.7z M19.6,8.6L31,8.5v3.8c-1-0.5-2.1-0.8-3.3-0.8h-0.1l-16.1,0.1c-1.2,0-2.3,0.3-3.4,0.9V8.6
	H19.6z M5.7,7.1C5.4,7.1,5,7,4.8,6.7c-0.3-0.3-0.4-0.6-0.4-1V4.2c0-0.8,0.6-1.4,1.3-1.4l27.7-0.3l0,0c0.4,0,0.7,0.1,1,0.4
	s0.4,0.6,0.4,1v1.5c0,0.4-0.1,0.7-0.4,1c-0.3,0.3-0.6,0.4-1,0.4L19.6,7L7.4,7.1H5.7z M33.9,50.4L33.9,50.4c0.4,0,0.7,0.1,1,0.4
	c0.3,0.3,0.4,0.6,0.4,1l0,0v1.5c0,0.4-0.1,0.7-0.4,1c-0.3,0.3-0.6,0.4-1,0.4L6.2,54.9c-0.3,0-0.7-0.1-1-0.4c-0.3-0.3-0.4-0.6-0.4-1
	V52c0-0.8,0.6-1.4,1.3-1.4h1.6l0,0l0,0L20,50.5L33.9,50.4z M78.5,23c-0.8-1-2-1.6-3.4-1.6c-0.1,0-0.2,0-0.3,0c-0.1,0-0.2,0-0.4,0
	l-39.8,2.8l0-6.2c0-1.7-0.7-3.3-1.9-4.5V8.4h0.8c0.8,0,1.5-0.3,2.1-0.9s0.9-1.3,0.8-2.1V3.9c0-0.8-0.3-1.5-0.9-2.1
	C34.9,1.3,34.2,1,33.4,1l0,0L5.7,1.3c-1.6,0-2.9,1.4-2.9,3v1.5c0,0.8,0.3,1.5,0.9,2.1c0.5,0.5,1.3,0.8,2,0.8l0,0h0.8v5.1
	c-1.2,1.2-1.8,2.8-1.8,4.5L5,39.2c0,1.8,0.7,3.3,1.9,4.5v0.1V49H6.1c-1.6,0-2.9,1.4-2.9,3v1.5c0,0.8,0.3,1.5,0.9,2.1
	c0.6,0.5,1.3,0.8,2.1,0.8l0,0l27.7-0.3c0.8,0,1.5-0.3,2.1-0.9c0.6-0.6,0.9-1.3,0.8-2.1v-1.5c0-1.6-1.4-2.9-3-2.9H33v-5.1
	c0-0.1,0-0.1,0-0.2c1.2-1.2,1.8-2.9,1.8-4.6l-0.1-6.2l7.6,0.5c0,0,0,0,0.1,0c0.4,0,0.8-0.3,0.8-0.7c0-0.4-0.3-0.8-0.7-0.8l-7.7-0.5
	v-5.4L74.5,23c0.1,0,0.1,0,0.2,0s0.1,0,0.2,0s0.1,0,0.2,0c0.9,0,1.6,0.3,2.2,1c0.6,0.8,1,1.9,1,3.3c0,0.4,0.4,0.8,0.8,0.8l0,0
	c0.4,0,0.8-0.4,0.8-0.8C79.8,25.5,79.4,24,78.5,23L78.5,23z M36.4,79c0,0.3-0.1,0.5-0.3,0.7S35.7,80,35.4,80L2.6,79.8
	c-0.5,0-1-0.4-1-1v-0.2c0-0.3,0.1-0.5,0.3-0.7s0.4-0.3,0.7-0.3l32.9,0.2c0.3,0,0.5,0.1,0.7,0.3c0.2,0.2,0.3,0.4,0.3,0.7L36.4,79z
	 M7.8,73.1l22.4,0.1c1.8,0,3.3,1.3,3.6,3.1L4.1,76.1c0.1-0.7,0.5-1.4,1-1.9C5.9,73.4,6.8,73.1,7.8,73.1L7.8,73.1z M37.3,77
	c-0.5-0.5-1.1-0.8-1.8-0.8l0,0c-0.3-2.6-2.5-4.7-5.2-4.7H7.8C6.4,71.5,5,72,4,73c-0.8,0.8-1.4,1.9-1.5,3.1c-0.7,0-1.3,0.3-1.7,0.7
	C0.3,77.3,0,77.9,0,78.6v0.2c0,1.4,1.1,2.6,2.6,2.6l32.9,0.2l0,0c0.7,0,1.3-0.3,1.8-0.7c0.5-0.5,0.8-1.1,0.8-1.8v-0.2
	C38,78.2,37.8,77.5,37.3,77L37.3,77z M62.7,32.5c-0.2,0-0.4,0.1-0.6,0.2c-0.3,0.2-0.5,0.4-0.6,0.8c-0.1,0.3,0,0.7,0.1,1
	c0.2,0.3,0.4,0.5,0.8,0.6l12,3.2c0.7,0.2,1.4-0.2,1.6-0.9s-0.2-1.4-0.9-1.6l-12-3.2C62.9,32.5,62.8,32.5,62.7,32.5L62.7,32.5z
	 M74.7,39.9c-0.2,0-0.5,0-0.7-0.1l-12-3.2c-0.7-0.2-1.4-0.7-1.7-1.3c-0.4-0.7-0.5-1.4-0.3-2.2c0.2-0.7,0.7-1.4,1.3-1.7
	c0.7-0.4,1.4-0.5,2.2-0.3l12,3.2c1.5,0.4,2.4,2,2,3.5C77.1,39,75.9,39.9,74.7,39.9L74.7,39.9z M63.7,73.8c-0.1,0-0.1,0-0.2,0
	l-19-5.1c-0.4-0.1-0.7-0.6-0.6-1c0.1-0.4,0.6-0.7,1-0.6l19,5.1c0.4,0.1,0.7,0.6,0.6,1C64.4,73.6,64.1,73.8,63.7,73.8L63.7,73.8z
	 M60.7,69.1c-0.1,0-0.1,0-0.2,0l-15-4c-0.4-0.1-0.7-0.6-0.6-1c0.1-0.4,0.6-0.7,1-0.6l15,4c0.4,0.1,0.7,0.6,0.6,1
	C61.4,68.9,61.1,69.1,60.7,69.1L60.7,69.1z M79.4,34.3L67.7,78.1c-0.1,0.3-0.3,0.6-0.6,0.8c-0.3,0.2-0.6,0.2-1,0.1l-27.2-7.3
	c-0.7-0.2-1.1-0.9-0.9-1.5l9.6-35.8l6.7,1.8c0.2,0.1,0.5,0.1,0.7,0.1c0.5,0,1-0.1,1.4-0.4c0.6-0.4,1.1-1,1.3-1.7l1.7-6.4l19,5.1
	c0.3,0.1,0.6,0.3,0.8,0.6C79.4,33.7,79.5,34,79.4,34.3L79.4,34.3z M57.7,28.2l-1.5,5.5c-0.1,0.3-0.3,0.6-0.6,0.8s-0.6,0.2-0.9,0.1
	L48.9,33L57.7,28.2z M80.7,32.6c-0.4-0.7-1-1.1-1.7-1.3l-20-5.4c-0.2-0.1-0.4,0-0.6,0.1l-11.7,6.5c-0.2,0.1-0.3,0.3-0.4,0.5
	l-9.9,36.8c-0.4,1.5,0.5,3.1,2,3.5l27.2,7.3c0.2,0.1,0.5,0.1,0.7,0.1c0.5,0,1-0.1,1.4-0.4c0.7-0.4,1.1-1,1.3-1.7l11.7-43.8
	C81.1,34,81,33.2,80.7,32.6L80.7,32.6z M61.1,52.6c-0.2,0.2-0.5,0.4-0.8,0.5l-2.8-1.9L57,50.7l-0.3-0.6c-0.1-0.2-0.1-0.5,0-0.8
	c0.1-0.4,0.3-0.8,0.6-0.9c0.3-0.2,0.6-0.3,1-0.4l2.4,1.8l0.5,0.5l0.3,0.6c0.1,0.2,0.1,0.5,0,0.8C61.4,52,61.3,52.3,61.1,52.6
	L61.1,52.6z M63.4,49.1c-0.3-0.4-0.7-0.7-1.1-1.1l-3.2-2.4c-0.2-0.2-0.4-0.5-0.5-0.7s-0.1-0.5-0.1-0.8c0.1-0.3,0.2-0.5,0.3-0.6
	c0.2-0.2,0.3-0.3,0.6-0.4l0.7-0.2l0.7,0.1c0.5,0.1,0.9,0.3,1.4,0.7c0.4,0.3,0.7,0.8,1,1.3l0,0c0.2,0.4,0.5,0.6,0.9,0.7
	c0.7,0.1,1.4-0.3,1.5-1c0.1-0.4,0-0.7-0.2-1l0,0c-0.4-0.8-1-1.4-1.7-1.9s-1.6-0.8-2.4-1c-0.6-0.1-1.1-0.1-1.7-0.1
	c-0.6,0-1.1,0.2-1.6,0.4s-0.9,0.5-1.3,1c-0.4,0.4-0.6,0.9-0.7,1.6c-0.2,1.1,0.1,2.1,0.9,2.9L56,47l-1,0.5c-0.3,0.2-0.5,0.5-0.7,0.8
	S54,49,53.9,49.4c-0.1,0.5-0.1,1,0,1.4s0.3,0.8,0.6,1.1s0.6,0.7,1,0.9l2.5,1.6l1,0.7c0.3,0.2,0.4,0.5,0.5,0.8s0.1,0.6,0.1,0.9
	c-0.1,0.3-0.2,0.5-0.3,0.7c-0.2,0.2-0.4,0.3-0.6,0.4l-0.8,0.2L57.1,58c-0.6-0.1-1.1-0.4-1.6-0.7c-0.5-0.4-0.8-0.8-1-1.4l0,0
	c-0.2-0.4-0.5-0.7-1-0.8c-0.7-0.1-1.4,0.3-1.6,1.1c0,0.2,0,0.5,0,0.7l0,0V57l0,0c0.2,0.5,0.4,0.9,0.7,1.2c0.3,0.4,0.7,0.7,1.1,1
	c0.4,0.3,0.9,0.5,1.3,0.8c0.5,0.2,0.9,0.3,1.4,0.4c0.6,0.1,1.2,0.1,1.8,0.1s1.2-0.2,1.7-0.5c0.5-0.2,1-0.6,1.4-1.1s0.7-1,0.8-1.7
	c0.1-0.5,0.1-1,0-1.5s-0.3-0.9-0.7-1.3c0.6-0.2,1.1-0.5,1.5-0.9c0.5-0.5,0.7-1,0.9-1.6c0.1-0.6,0.1-1.1-0.1-1.5
	C63.9,49.9,63.7,49.5,63.4,49.1L63.4,49.1z"/>
<path id="Fill" style="fill:#FFC409;" d="M75,35.8l-12-3.2c-0.1,0-0.2,0-0.3,0c-0.2,0-0.4,0.1-0.6,0.2c-0.3,0.2-0.5,0.4-0.6,0.8
	c-0.1,0.3,0,0.7,0.1,1c0.2,0.3,0.4,0.5,0.8,0.6l12,3.2c0.7,0.2,1.4-0.2,1.6-0.9C76.1,36.6,75.7,35.9,75,35.8L75,35.8z M11.6,11.6
	l16.1-0.1h0.1c1.2,0,2.3,0.3,3.3,0.8V8.5L19.6,8.6L8.2,8.7v3.9C9.2,12,10.4,11.6,11.6,11.6L11.6,11.6z M11.9,45.8L11.9,45.8
	c-1.3,0-2.4-0.3-3.4-0.8v4.1l22.8-0.2v-4.1c-1,0.6-2.2,0.9-3.4,0.9L11.9,45.8z M33.9,76.2L4.1,76.1c0.1-0.7,0.5-1.4,1-1.9
	c0.7-0.7,1.6-1.1,2.6-1.1l22.4,0.1C32,73.2,33.5,74.5,33.9,76.2L33.9,76.2z"/>
</svg>
